<svg width="37" height="37" viewBox="0 0 37 37" fill="none" xmlns="http://www.w3.org/2000/svg">
<path d="M6.16715 6.16406V4.81861H4.8217V6.16406H6.16715ZM30.8338 6.16406H32.1793V4.81861H30.8338V6.16406ZM9.84077 17.546C9.31534 18.0714 9.31534 18.9233 9.84077 19.4488C10.3662 19.9742 11.2181 19.9742 11.7435 19.4488L9.84077 17.546ZM15.4172 13.8724L16.3685 12.921C16.1162 12.6687 15.774 12.5269 15.4172 12.5269C15.0603 12.5269 14.7181 12.6687 14.4658 12.921L15.4172 13.8724ZM20.0422 18.4974L19.0908 19.4488C19.3431 19.7011 19.6853 19.8429 20.0422 19.8429C20.399 19.8429 20.7412 19.7011 20.9935 19.4488L20.0422 18.4974ZM27.1602 13.2821C27.6856 12.7567 27.6856 11.9048 27.1602 11.3793C26.6348 10.8539 25.7829 10.8539 25.2574 11.3793L27.1602 13.2821ZM11.3824 31.421C10.857 31.9464 10.857 32.7983 11.3824 33.3238C11.9079 33.8492 12.7598 33.8492 13.2852 33.3238L11.3824 31.421ZM18.5005 26.2057L19.4519 25.2544C19.1995 25.002 18.8573 24.8603 18.5005 24.8603C18.1437 24.8603 17.8014 25.002 17.5491 25.2544L18.5005 26.2057ZM23.7158 33.3238C24.2412 33.8492 25.0931 33.8492 25.6185 33.3238C26.144 32.7983 26.144 31.9464 25.6185 31.421L23.7158 33.3238ZM4.62549 4.81861C3.88241 4.81861 3.28003 5.42099 3.28003 6.16406C3.28003 6.90714 3.88241 7.50952 4.62549 7.50952V4.81861ZM32.3755 7.50952C33.1186 7.50952 33.7209 6.90714 33.7209 6.16406C33.7209 5.42099 33.1186 4.81861 32.3755 4.81861V7.50952ZM6.16715 7.50952H30.8338V4.81861H6.16715V7.50952ZM29.4884 6.16406V24.6641H32.1793V6.16406H29.4884ZM29.2922 24.8603H7.70882V27.5512H29.2922V24.8603ZM7.51261 24.6641V6.16406H4.8217V24.6641H7.51261ZM7.70882 24.8603C7.60046 24.8603 7.51261 24.7724 7.51261 24.6641H4.8217C4.8217 26.2586 6.11431 27.5512 7.70882 27.5512V24.8603ZM29.4884 24.6641C29.4884 24.7724 29.4005 24.8603 29.2922 24.8603V27.5512C30.8867 27.5512 32.1793 26.2586 32.1793 24.6641H29.4884ZM11.7435 19.4488L16.3685 14.8238L14.4658 12.921L9.84077 17.546L11.7435 19.4488ZM14.4658 14.8238L19.0908 19.4488L20.9935 17.546L16.3685 12.921L14.4658 14.8238ZM20.9935 19.4488L27.1602 13.2821L25.2574 11.3793L19.0908 17.546L20.9935 19.4488ZM13.2852 33.3238L19.4519 27.1571L17.5491 25.2544L11.3824 31.421L13.2852 33.3238ZM17.5491 27.1571L23.7158 33.3238L25.6185 31.421L19.4519 25.2544L17.5491 27.1571ZM4.62549 7.50952H32.3755V4.81861H4.62549V7.50952Z" fill="#081635"/>
</svg>
