<svg width="28" height="28" viewBox="0 0 28 28" fill="none" xmlns="http://www.w3.org/2000/svg">
<path d="M27.25 14.125C27.25 21.3737 21.3737 27.25 14.125 27.25C6.87626 27.25 1 21.3737 1 14.125C1 6.87626 6.87626 1 14.125 1C21.3737 1 27.25 6.87626 27.25 14.125Z" stroke="#38D4AD" stroke-width="1.4" stroke-linecap="round" stroke-linejoin="round"/>
<path d="M12.9553 16.2078C13.0087 16.1269 13.067 16.0492 13.1297 15.9752L19.6844 9.42054C19.8217 9.2503 20.0055 9.12355 20.2134 9.05571C20.4213 8.98788 20.6445 8.98186 20.8558 9.03837C21.0274 9.08762 21.1842 9.1787 21.3121 9.30341C21.4399 9.42812 21.5349 9.58257 21.5884 9.75296C21.6419 9.92336 21.6523 10.1043 21.6187 10.2797C21.5851 10.4552 21.5085 10.6195 21.3958 10.758L21.1715 10.9907L13.8276 18.3346C13.7234 18.4837 13.5848 18.6054 13.4236 18.6895C13.2623 18.7736 13.0831 18.8175 12.9013 18.8175C12.7194 18.8175 12.5402 18.7736 12.3789 18.6895C12.2177 18.6054 12.0791 18.4837 11.975 18.3346L8.39438 14.7623C8.22971 14.625 8.10889 14.4424 8.04687 14.2372C7.98486 14.032 7.98437 13.8131 8.04547 13.6075C8.09465 13.443 8.18268 13.2926 8.30214 13.1692C8.42159 13.0458 8.56898 12.9528 8.73185 12.8983C8.89473 12.8437 9.06833 12.8291 9.23803 12.8557C9.40774 12.8823 9.56858 12.9492 9.70698 13.051L9.98114 13.3002L12.6728 15.9918C12.7306 16.0728 12.7806 16.159 12.8223 16.2494L12.9553 16.2078Z" fill="#38D4AD"/>
</svg>
