<svg width="600" height="464" viewBox="0 0 600 464" fill="none" xmlns="http://www.w3.org/2000/svg">
<g filter="url(#filter0_d_16_226)">
<rect x="99" y="6" width="231" height="136" rx="6.12001" fill="white"/>
</g>
<g style="mix-blend-mode:multiply">
<rect x="114" y="22" width="94" height="103" rx="6.12001" fill="#EDF1FC"/>
</g>
<path fill-rule="evenodd" clip-rule="evenodd" d="M178.222 52.9111H166.069C166.007 52.9244 165.942 52.9314 165.875 52.9314H144.375C143.196 52.9314 142.066 53.3995 141.233 54.2329C140.4 55.0662 139.931 56.1965 139.931 57.375V82.0015L150.666 71.2666L150.666 71.2665C151.849 70.0842 153.453 69.42 155.125 69.42C156.797 69.42 158.401 70.0842 159.584 71.2665L159.584 71.2666L165.875 77.5579L169.479 73.9541L169.479 73.954C170.662 72.7717 172.265 72.1075 173.938 72.1075C175.61 72.1075 177.213 72.7717 178.396 73.954L178.396 73.9541L181.069 76.6265V68.125C181.069 68.0584 181.076 67.9935 181.089 67.9309V55.7778C181.089 54.1946 179.805 52.9111 178.222 52.9111ZM142.778 51C140.139 51 138 53.1391 138 55.7778V91.2222C138 93.8609 140.139 96 142.778 96H178.222C180.861 96 183 93.8609 183 91.2222V55.7778C183 53.1391 180.861 51 178.222 51H142.778ZM181.069 79.2608L177.079 75.2713L177.079 75.2712C176.246 74.4382 175.116 73.9703 173.938 73.9703C172.759 73.9703 171.629 74.4382 170.796 75.2712L170.796 75.2713L167.192 78.875L171.909 83.5914C172.272 83.9552 172.272 84.5449 171.909 84.9086C171.545 85.2723 170.955 85.2723 170.591 84.9086L165.216 79.5336L158.267 72.5838L158.267 72.5837C157.433 71.7507 156.303 71.2828 155.125 71.2828C153.947 71.2828 152.817 71.7507 151.983 72.5837L151.983 72.5838L139.931 84.6358V89.625C139.931 90.8035 140.4 91.9338 141.233 92.7671C142.066 93.6005 143.196 94.0686 144.375 94.0686H176.625C177.804 94.0686 178.934 93.6005 179.767 92.7671C180.6 91.9338 181.069 90.8035 181.069 89.625V79.2608ZM167.161 67.4616C168.239 67.4616 169.113 66.5878 169.113 65.5099C169.113 64.432 168.239 63.5581 167.161 63.5581C166.083 63.5581 165.209 64.432 165.209 65.5099C165.209 66.5878 166.083 67.4616 167.161 67.4616Z" fill="#081635"/>
<rect x="222.14" y="63" width="80.2402" height="4.08001" rx="2.04" fill="#EDF1FC"/>
<rect x="222" y="52" width="68" height="4" rx="2" fill="#EDF1FC"/>
<rect x="222.14" y="74" width="75.4802" height="4.08001" rx="2.04" fill="#EDF1FC"/>
<rect x="222" y="85" width="64" height="4" rx="2" fill="#EDF1FC"/>
<path d="M223.635 38.0848C223.182 38.0848 222.956 37.8516 222.956 37.3852V31.216C222.956 30.7567 223.186 30.527 223.645 30.527H226.2C227.02 30.527 227.652 30.7319 228.097 31.1418C228.543 31.5517 228.765 32.1241 228.765 32.859C228.765 33.5939 228.543 34.1699 228.097 34.5868C227.652 34.9967 227.02 35.2016 226.2 35.2016H224.313V37.3852C224.313 37.8516 224.087 38.0848 223.635 38.0848ZM224.313 34.131H225.988C226.963 34.131 227.451 33.707 227.451 32.859C227.451 32.0181 226.963 31.5976 225.988 31.5976H224.313V34.131ZM230.372 38.0848C229.92 38.0848 229.693 37.8587 229.693 37.4064V33.3996C229.693 32.9544 229.909 32.7318 230.34 32.7318C230.771 32.7318 230.987 32.9544 230.987 33.3996V33.7282C231.241 33.1205 231.785 32.7813 232.619 32.7106C232.923 32.6753 233.093 32.8484 233.128 33.23C233.163 33.6045 232.979 33.813 232.577 33.8554L232.343 33.8766C231.474 33.9614 231.04 34.4066 231.04 35.2122V37.4064C231.04 37.8587 230.817 38.0848 230.372 38.0848ZM236.178 38.106C235.641 38.106 235.175 37.9965 234.779 37.7774C234.383 37.5583 234.076 37.2474 233.857 36.8446C233.638 36.4347 233.528 35.9542 233.528 35.403C233.528 34.8518 233.638 34.3748 233.857 33.972C234.076 33.5692 234.383 33.2583 234.779 33.0392C235.175 32.8201 235.641 32.7106 236.178 32.7106C236.715 32.7106 237.182 32.8201 237.578 33.0392C237.973 33.2583 238.281 33.5692 238.5 33.972C238.719 34.3748 238.828 34.8518 238.828 35.403C238.828 35.9542 238.719 36.4347 238.5 36.8446C238.281 37.2474 237.973 37.5583 237.578 37.7774C237.182 37.9965 236.715 38.106 236.178 38.106ZM236.178 37.099C236.574 37.099 236.892 36.9577 237.132 36.675C237.373 36.3853 237.493 35.9613 237.493 35.403C237.493 34.8377 237.373 34.4172 237.132 34.1416C236.892 33.8589 236.574 33.7176 236.178 33.7176C235.783 33.7176 235.465 33.8589 235.224 34.1416C234.984 34.4172 234.864 34.8377 234.864 35.403C234.864 35.9613 234.984 36.3853 235.224 36.675C235.465 36.9577 235.783 37.099 236.178 37.099ZM241.968 38.106C241.516 38.106 241.116 37.9965 240.77 37.7774C240.431 37.5583 240.166 37.2474 239.975 36.8446C239.784 36.4347 239.689 35.9542 239.689 35.403C239.689 34.8447 239.784 34.3677 239.975 33.972C240.166 33.5692 240.431 33.2583 240.77 33.0392C241.116 32.8201 241.516 32.7106 241.968 32.7106C242.335 32.7106 242.667 32.7919 242.964 32.9544C243.261 33.1169 243.484 33.3325 243.632 33.601V31.11C243.632 30.6648 243.851 30.4422 244.289 30.4422C244.734 30.4422 244.957 30.6648 244.957 31.11V37.4064C244.957 37.8587 244.738 38.0848 244.3 38.0848C243.862 38.0848 243.643 37.8587 243.643 37.4064V37.1838C243.494 37.4665 243.272 37.6926 242.975 37.8622C242.678 38.0247 242.342 38.106 241.968 38.106ZM242.339 37.099C242.735 37.099 243.053 36.9577 243.293 36.675C243.533 36.3853 243.653 35.9613 243.653 35.403C243.653 34.8377 243.533 34.4172 243.293 34.1416C243.053 33.8589 242.735 33.7176 242.339 33.7176C241.943 33.7176 241.625 33.8589 241.385 34.1416C241.145 34.4172 241.024 34.8377 241.024 35.403C241.024 35.9613 241.145 36.3853 241.385 36.675C241.625 36.9577 241.943 37.099 242.339 37.099ZM248.26 38.106C246.988 38.106 246.352 37.3923 246.352 35.9648V33.3996C246.352 32.9544 246.571 32.7318 247.009 32.7318C247.455 32.7318 247.677 32.9544 247.677 33.3996V35.986C247.677 36.3535 247.751 36.6255 247.9 36.8022C248.048 36.9789 248.285 37.0672 248.61 37.0672C248.963 37.0672 249.253 36.9471 249.479 36.7068C249.705 36.4595 249.818 36.1344 249.818 35.7316V33.3996C249.818 32.9544 250.037 32.7318 250.476 32.7318C250.921 32.7318 251.143 32.9544 251.143 33.3996V37.4064C251.143 37.8587 250.928 38.0848 250.497 38.0848C250.066 38.0848 249.85 37.8587 249.85 37.4064V37.2262C249.504 37.8127 248.974 38.106 248.26 38.106ZM254.971 38.106C254.427 38.106 253.953 37.9965 253.551 37.7774C253.148 37.5513 252.837 37.2333 252.618 36.8234C252.399 36.4135 252.289 35.933 252.289 35.3818C252.289 34.8306 252.399 34.3571 252.618 33.9614C252.837 33.5586 253.148 33.2512 253.551 33.0392C253.953 32.8201 254.427 32.7106 254.971 32.7106C255.204 32.7106 255.455 32.7424 255.724 32.806C255.999 32.8696 256.257 32.9756 256.497 33.124C256.639 33.2088 256.72 33.3183 256.741 33.4526C256.769 33.5869 256.752 33.7105 256.688 33.8236C256.632 33.9367 256.543 34.0179 256.423 34.0674C256.31 34.1169 256.179 34.0992 256.031 34.0144C255.706 33.8307 255.391 33.7388 255.088 33.7388C254.628 33.7388 254.271 33.8837 254.017 34.1734C253.77 34.4561 253.646 34.8624 253.646 35.3924C253.646 35.9153 253.77 36.3287 254.017 36.6326C254.271 36.9294 254.628 37.0778 255.088 37.0778C255.391 37.0778 255.706 36.9895 256.031 36.8128C256.179 36.728 256.31 36.7103 256.423 36.7598C256.536 36.8093 256.618 36.8941 256.667 37.0142C256.716 37.1273 256.727 37.2509 256.699 37.3852C256.671 37.5124 256.589 37.6184 256.455 37.7032C256.222 37.8445 255.974 37.947 255.713 38.0106C255.452 38.0742 255.204 38.106 254.971 38.106ZM260.023 38.106C258.652 38.106 257.967 37.4276 257.967 36.0708V33.813H257.416C257.062 33.813 256.886 33.6469 256.886 33.3148C256.886 32.9827 257.062 32.8166 257.416 32.8166H257.967V31.852C257.967 31.4068 258.189 31.1842 258.635 31.1842C259.073 31.1842 259.292 31.4068 259.292 31.852V32.8166H260.415C260.769 32.8166 260.945 32.9827 260.945 33.3148C260.945 33.6469 260.769 33.813 260.415 33.813H259.292V35.9966C259.292 36.3358 259.366 36.5902 259.514 36.7598C259.663 36.9294 259.903 37.0142 260.235 37.0142C260.355 37.0142 260.461 37.0036 260.553 36.9824C260.645 36.9612 260.726 36.9471 260.797 36.94C260.882 36.9329 260.953 36.9612 261.009 37.0248C261.066 37.0813 261.094 37.2015 261.094 37.3852C261.094 37.5265 261.069 37.6537 261.02 37.7668C260.977 37.8728 260.896 37.947 260.776 37.9894C260.684 38.0177 260.564 38.0424 260.415 38.0636C260.267 38.0919 260.136 38.106 260.023 38.106ZM264.082 38.106C263.545 38.106 263.079 37.9965 262.683 37.7774C262.287 37.5583 261.98 37.2474 261.761 36.8446C261.542 36.4347 261.432 35.9542 261.432 35.403C261.432 34.8518 261.542 34.3748 261.761 33.972C261.98 33.5692 262.287 33.2583 262.683 33.0392C263.079 32.8201 263.545 32.7106 264.082 32.7106C264.619 32.7106 265.086 32.8201 265.481 33.0392C265.877 33.2583 266.184 33.5692 266.404 33.972C266.623 34.3748 266.732 34.8518 266.732 35.403C266.732 35.9542 266.623 36.4347 266.404 36.8446C266.184 37.2474 265.877 37.5583 265.481 37.7774C265.086 37.9965 264.619 38.106 264.082 38.106ZM264.082 37.099C264.478 37.099 264.796 36.9577 265.036 36.675C265.276 36.3853 265.397 35.9613 265.397 35.403C265.397 34.8377 265.276 34.4172 265.036 34.1416C264.796 33.8589 264.478 33.7176 264.082 33.7176C263.686 33.7176 263.368 33.8589 263.128 34.1416C262.888 34.4172 262.768 34.8377 262.768 35.403C262.768 35.9613 262.888 36.3853 263.128 36.675C263.368 36.9577 263.686 37.099 264.082 37.099Z" fill="#081635"/>
<path d="M281.392 38.106C280.919 38.106 280.456 38.053 280.003 37.947C279.558 37.841 279.17 37.682 278.837 37.47C278.675 37.364 278.576 37.2333 278.541 37.0778C278.505 36.9223 278.516 36.7775 278.572 36.6432C278.636 36.5019 278.731 36.4065 278.859 36.357C278.993 36.3005 279.145 36.3252 279.314 36.4312C279.625 36.6149 279.954 36.7492 280.3 36.834C280.646 36.9188 281.01 36.9612 281.392 36.9612C281.95 36.9612 282.357 36.8693 282.611 36.6856C282.865 36.4948 282.993 36.251 282.993 35.9542C282.993 35.7069 282.901 35.5125 282.717 35.3712C282.54 35.2299 282.233 35.1133 281.795 35.0214L280.629 34.7776C279.3 34.4949 278.636 33.813 278.636 32.7318C278.636 32.2654 278.76 31.8591 279.007 31.5128C279.254 31.1665 279.597 30.898 280.035 30.7072C280.473 30.5164 280.979 30.421 281.551 30.421C281.975 30.421 282.378 30.474 282.759 30.58C283.141 30.686 283.484 30.8415 283.788 31.0464C283.929 31.1453 284.014 31.269 284.042 31.4174C284.07 31.5587 284.053 31.693 283.989 31.8202C283.925 31.9403 283.823 32.0251 283.682 32.0746C283.547 32.117 283.388 32.0852 283.205 31.9792C282.943 31.8308 282.678 31.7248 282.41 31.6612C282.141 31.5976 281.851 31.5658 281.54 31.5658C281.053 31.5658 280.671 31.6683 280.396 31.8732C280.12 32.0781 279.982 32.3467 279.982 32.6788C279.982 32.9332 280.067 33.1381 280.237 33.2936C280.406 33.442 280.696 33.5586 281.106 33.6434L282.261 33.8872C282.961 34.0356 283.48 34.2688 283.819 34.5868C284.166 34.9048 284.339 35.3288 284.339 35.8588C284.339 36.304 284.219 36.6962 283.978 37.0354C283.738 37.3746 283.395 37.6396 282.95 37.8304C282.512 38.0141 281.993 38.106 281.392 38.106ZM287.984 38.106C287.397 38.106 286.892 37.9965 286.468 37.7774C286.044 37.5583 285.715 37.2474 285.482 36.8446C285.256 36.4418 285.143 35.9648 285.143 35.4136C285.143 34.8765 285.252 34.4066 285.472 34.0038C285.698 33.601 286.005 33.2865 286.394 33.0604C286.789 32.8272 287.238 32.7106 287.74 32.7106C288.475 32.7106 289.054 32.9438 289.478 33.4102C289.909 33.8766 290.125 34.5126 290.125 35.3182C290.125 35.5797 289.955 35.7104 289.616 35.7104H286.415C286.514 36.6361 287.044 37.099 288.005 37.099C288.189 37.099 288.394 37.0778 288.62 37.0354C288.853 36.9859 289.072 36.9047 289.277 36.7916C289.461 36.6856 289.616 36.6538 289.743 36.6962C289.871 36.7315 289.959 36.8057 290.008 36.9188C290.065 37.0319 290.072 37.1591 290.03 37.3004C289.994 37.4347 289.895 37.5513 289.733 37.6502C289.485 37.8057 289.199 37.9223 288.874 38C288.556 38.0707 288.259 38.106 287.984 38.106ZM287.793 33.6116C287.404 33.6116 287.09 33.7317 286.85 33.972C286.609 34.2123 286.464 34.5373 286.415 34.9472H289.023C288.994 34.5161 288.874 34.1875 288.662 33.9614C288.457 33.7282 288.167 33.6116 287.793 33.6116ZM291.906 38.0848C291.453 38.0848 291.227 37.8587 291.227 37.4064V33.3996C291.227 32.9544 291.443 32.7318 291.874 32.7318C292.305 32.7318 292.52 32.9544 292.52 33.3996V33.7282C292.775 33.1205 293.319 32.7813 294.153 32.7106C294.457 32.6753 294.626 32.8484 294.662 33.23C294.697 33.6045 294.513 33.813 294.11 33.8554L293.877 33.8766C293.008 33.9614 292.573 34.4066 292.573 35.2122V37.4064C292.573 37.8587 292.351 38.0848 291.906 38.0848ZM297.851 38.0848C297.498 38.0848 297.236 37.8975 297.067 37.523L295.381 33.6116C295.282 33.3784 295.279 33.1735 295.371 32.9968C295.469 32.8201 295.664 32.7318 295.954 32.7318C296.116 32.7318 296.247 32.7707 296.346 32.8484C296.445 32.9191 296.533 33.0569 296.611 33.2618L297.883 36.4418L299.197 33.2512C299.275 33.0533 299.363 32.9191 299.462 32.8484C299.568 32.7707 299.709 32.7318 299.886 32.7318C300.112 32.7318 300.271 32.8201 300.363 32.9968C300.455 33.1735 300.451 33.3749 300.353 33.601L298.635 37.523C298.48 37.8975 298.218 38.0848 297.851 38.0848ZM302.052 31.7566C301.805 31.7566 301.61 31.6965 301.469 31.5764C301.335 31.4492 301.268 31.2761 301.268 31.057C301.268 30.8309 301.335 30.6577 301.469 30.5376C301.61 30.4175 301.805 30.3574 302.052 30.3574C302.575 30.3574 302.837 30.5906 302.837 31.057C302.837 31.5234 302.575 31.7566 302.052 31.7566ZM302.052 38.0742C301.84 38.0742 301.678 38.0106 301.565 37.8834C301.451 37.7562 301.395 37.5795 301.395 37.3534V33.4632C301.395 32.9827 301.614 32.7424 302.052 32.7424C302.497 32.7424 302.72 32.9827 302.72 33.4632V37.3534C302.72 37.5795 302.663 37.7562 302.55 37.8834C302.437 38.0106 302.271 38.0742 302.052 38.0742ZM306.545 38.106C306.001 38.106 305.528 37.9965 305.125 37.7774C304.722 37.5513 304.411 37.2333 304.192 36.8234C303.973 36.4135 303.864 35.933 303.864 35.3818C303.864 34.8306 303.973 34.3571 304.192 33.9614C304.411 33.5586 304.722 33.2512 305.125 33.0392C305.528 32.8201 306.001 32.7106 306.545 32.7106C306.779 32.7106 307.029 32.7424 307.298 32.806C307.574 32.8696 307.831 32.9756 308.072 33.124C308.213 33.2088 308.294 33.3183 308.316 33.4526C308.344 33.5869 308.326 33.7105 308.263 33.8236C308.206 33.9367 308.118 34.0179 307.998 34.0674C307.884 34.1169 307.754 34.0992 307.605 34.0144C307.28 33.8307 306.966 33.7388 306.662 33.7388C306.203 33.7388 305.846 33.8837 305.591 34.1734C305.344 34.4561 305.22 34.8624 305.22 35.3924C305.22 35.9153 305.344 36.3287 305.591 36.6326C305.846 36.9294 306.203 37.0778 306.662 37.0778C306.966 37.0778 307.28 36.9895 307.605 36.8128C307.754 36.728 307.884 36.7103 307.998 36.7598C308.111 36.8093 308.192 36.8941 308.241 37.0142C308.291 37.1273 308.301 37.2509 308.273 37.3852C308.245 37.5124 308.164 37.6184 308.029 37.7032C307.796 37.8445 307.549 37.947 307.287 38.0106C307.026 38.0742 306.779 38.106 306.545 38.106ZM309.86 31.7566C309.612 31.7566 309.418 31.6965 309.277 31.5764C309.142 31.4492 309.075 31.2761 309.075 31.057C309.075 30.8309 309.142 30.6577 309.277 30.5376C309.418 30.4175 309.612 30.3574 309.86 30.3574C310.383 30.3574 310.644 30.5906 310.644 31.057C310.644 31.5234 310.383 31.7566 309.86 31.7566ZM309.86 38.0742C309.648 38.0742 309.485 38.0106 309.372 37.8834C309.259 37.7562 309.203 37.5795 309.203 37.3534V33.4632C309.203 32.9827 309.422 32.7424 309.86 32.7424C310.305 32.7424 310.528 32.9827 310.528 33.4632V37.3534C310.528 37.5795 310.471 37.7562 310.358 37.8834C310.245 38.0106 310.079 38.0742 309.86 38.0742ZM314.321 38.106C313.784 38.106 313.318 37.9965 312.922 37.7774C312.526 37.5583 312.219 37.2474 312 36.8446C311.781 36.4347 311.671 35.9542 311.671 35.403C311.671 34.8518 311.781 34.3748 312 33.972C312.219 33.5692 312.526 33.2583 312.922 33.0392C313.318 32.8201 313.784 32.7106 314.321 32.7106C314.858 32.7106 315.325 32.8201 315.72 33.0392C316.116 33.2583 316.423 33.5692 316.642 33.972C316.862 34.3748 316.971 34.8518 316.971 35.403C316.971 35.9542 316.862 36.4347 316.642 36.8446C316.423 37.2474 316.116 37.5583 315.72 37.7774C315.325 37.9965 314.858 38.106 314.321 38.106ZM314.321 37.099C314.717 37.099 315.035 36.9577 315.275 36.675C315.515 36.3853 315.635 35.9613 315.635 35.403C315.635 34.8377 315.515 34.4172 315.275 34.1416C315.035 33.8589 314.717 33.7176 314.321 33.7176C313.925 33.7176 313.607 33.8589 313.367 34.1416C313.127 34.4172 313.007 34.8377 313.007 35.403C313.007 35.9613 313.127 36.3853 313.367 36.675C313.607 36.9577 313.925 37.099 314.321 37.099Z" fill="#081635"/>
<path d="M271.933 38.3074C271.883 38.477 271.791 38.5865 271.657 38.636C271.53 38.6925 271.399 38.6996 271.265 38.6572C271.138 38.6219 271.039 38.5477 270.968 38.4346C270.89 38.3215 270.88 38.1767 270.936 38L273.385 30.3998C273.442 30.2302 273.533 30.1171 273.661 30.0606C273.788 30.0041 273.915 29.997 274.042 30.0394C274.176 30.0747 274.279 30.1525 274.35 30.2726C274.427 30.3857 274.438 30.527 274.381 30.6966L271.933 38.3074Z" fill="#081635"/>
<g style="mix-blend-mode:multiply">
<rect x="222" y="105" width="88.4002" height="20.4" rx="2.72001" fill="#EDF1FC"/>
</g>
<path d="M272.584 116.121C272.584 116.23 272.629 116.335 272.707 116.412C272.786 116.49 272.893 116.533 273.004 116.533H273.899C274.07 117.009 274.332 117.448 274.669 117.827C274.982 118.194 275.372 118.489 275.813 118.691C276.253 118.893 276.734 118.998 277.22 118.998C277.707 118.998 278.187 118.893 278.628 118.691C279.069 118.489 279.459 118.194 279.771 117.827C279.808 117.786 279.836 117.739 279.854 117.688C279.872 117.636 279.88 117.582 279.877 117.528C279.874 117.473 279.859 117.42 279.835 117.371C279.811 117.322 279.777 117.278 279.736 117.242C279.695 117.206 279.646 117.178 279.594 117.16C279.542 117.143 279.486 117.135 279.431 117.138C279.376 117.141 279.322 117.155 279.272 117.179C279.222 117.203 279.178 117.236 279.141 117.277C278.908 117.556 278.615 117.78 278.282 117.934C277.95 118.089 277.588 118.169 277.22 118.169C276.853 118.169 276.49 118.089 276.158 117.934C275.826 117.78 275.533 117.556 275.3 117.277C275.099 117.052 274.932 116.8 274.804 116.529H277.221C277.332 116.529 277.439 116.486 277.518 116.408C277.597 116.331 277.641 116.226 277.641 116.116C277.641 116.007 277.597 115.902 277.518 115.824C277.439 115.747 277.332 115.703 277.221 115.703H274.538C274.458 115.278 274.458 114.841 274.538 114.415H277.221C277.332 114.415 277.439 114.372 277.518 114.294C277.597 114.217 277.641 114.112 277.641 114.002C277.641 113.893 277.597 113.788 277.518 113.71C277.439 113.633 277.332 113.59 277.221 113.59H274.804C274.932 113.318 275.099 113.066 275.3 112.841C275.533 112.562 275.826 112.337 276.158 112.183C276.49 112.029 276.853 111.949 277.22 111.949C277.588 111.949 277.95 112.029 278.282 112.183C278.615 112.337 278.908 112.562 279.141 112.841C279.178 112.881 279.222 112.915 279.272 112.938C279.322 112.962 279.376 112.976 279.431 112.979C279.486 112.982 279.542 112.975 279.594 112.957C279.646 112.939 279.695 112.911 279.736 112.875C279.777 112.839 279.811 112.795 279.835 112.746C279.859 112.697 279.874 112.644 279.877 112.59C279.88 112.536 279.872 112.481 279.854 112.43C279.836 112.378 279.808 112.331 279.771 112.29C279.459 111.924 279.069 111.629 278.628 111.426C278.187 111.224 277.707 111.119 277.22 111.119C276.734 111.119 276.253 111.224 275.813 111.426C275.372 111.629 274.982 111.924 274.669 112.29C274.332 112.67 274.07 113.11 273.899 113.585H273.004C272.893 113.585 272.786 113.629 272.707 113.706C272.629 113.784 272.584 113.889 272.584 113.998C272.584 114.108 272.629 114.213 272.707 114.29C272.786 114.368 272.893 114.411 273.004 114.411H273.692C273.629 114.838 273.629 115.272 273.692 115.699H273.004C272.949 115.699 272.893 115.71 272.842 115.732C272.79 115.753 272.743 115.784 272.704 115.823C272.665 115.862 272.634 115.909 272.614 115.96C272.593 116.011 272.583 116.066 272.584 116.121V116.121Z" fill="#081635"/>
<path d="M262.252 116.121C262.252 116.23 262.296 116.335 262.375 116.412C262.454 116.49 262.561 116.533 262.672 116.533H263.567C263.738 117.009 263.999 117.448 264.337 117.827C264.649 118.194 265.04 118.489 265.48 118.691C265.921 118.893 266.402 118.998 266.888 118.998C267.374 118.998 267.855 118.893 268.296 118.691C268.736 118.489 269.127 118.194 269.439 117.827C269.476 117.786 269.504 117.739 269.522 117.688C269.54 117.636 269.548 117.582 269.545 117.528C269.541 117.473 269.527 117.42 269.503 117.371C269.479 117.322 269.445 117.278 269.404 117.242C269.362 117.206 269.314 117.178 269.262 117.16C269.21 117.143 269.154 117.135 269.099 117.138C269.044 117.141 268.99 117.155 268.94 117.179C268.89 117.203 268.845 117.236 268.809 117.277C268.575 117.556 268.282 117.78 267.95 117.934C267.618 118.089 267.255 118.169 266.888 118.169C266.521 118.169 266.158 118.089 265.826 117.934C265.494 117.78 265.201 117.556 264.967 117.277C264.767 117.052 264.6 116.8 264.472 116.529H266.889C267 116.529 267.107 116.486 267.186 116.408C267.265 116.331 267.309 116.226 267.309 116.116C267.309 116.007 267.265 115.902 267.186 115.824C267.107 115.747 267 115.703 266.889 115.703H264.206C264.126 115.278 264.126 114.841 264.206 114.415H266.889C267 114.415 267.107 114.372 267.186 114.294C267.265 114.217 267.309 114.112 267.309 114.002C267.309 113.893 267.265 113.788 267.186 113.71C267.107 113.633 267 113.59 266.889 113.59H264.472C264.6 113.318 264.766 113.066 264.967 112.841C265.201 112.562 265.494 112.337 265.826 112.183C266.158 112.029 266.521 111.949 266.888 111.949C267.255 111.949 267.618 112.029 267.95 112.183C268.282 112.337 268.575 112.562 268.809 112.841C268.845 112.881 268.89 112.915 268.94 112.938C268.99 112.962 269.044 112.976 269.099 112.979C269.154 112.982 269.21 112.975 269.262 112.957C269.314 112.939 269.362 112.911 269.404 112.875C269.445 112.839 269.479 112.795 269.503 112.746C269.527 112.697 269.541 112.644 269.545 112.59C269.548 112.536 269.54 112.481 269.522 112.43C269.504 112.378 269.476 112.331 269.439 112.29C269.127 111.924 268.736 111.629 268.296 111.426C267.855 111.224 267.374 111.119 266.888 111.119C266.402 111.119 265.921 111.224 265.48 111.426C265.04 111.629 264.649 111.924 264.337 112.29C263.999 112.67 263.738 113.11 263.567 113.585H262.672C262.561 113.585 262.454 113.629 262.375 113.706C262.296 113.784 262.252 113.889 262.252 113.998C262.252 114.108 262.296 114.213 262.375 114.29C262.454 114.368 262.561 114.411 262.672 114.411H263.36C263.297 114.838 263.297 115.272 263.36 115.699H262.672C262.616 115.699 262.561 115.71 262.509 115.732C262.458 115.753 262.411 115.784 262.372 115.823C262.333 115.862 262.302 115.909 262.282 115.96C262.261 116.011 262.251 116.066 262.252 116.121V116.121Z" fill="#081635"/>
<path d="M251.92 116.121C251.92 116.23 251.964 116.335 252.043 116.412C252.122 116.49 252.229 116.533 252.34 116.533H253.235C253.406 117.009 253.667 117.448 254.005 117.827C254.317 118.194 254.708 118.489 255.148 118.691C255.589 118.893 256.069 118.998 256.556 118.998C257.042 118.998 257.523 118.893 257.964 118.691C258.404 118.489 258.795 118.194 259.107 117.827C259.144 117.786 259.172 117.739 259.19 117.688C259.208 117.636 259.216 117.582 259.212 117.528C259.209 117.473 259.195 117.42 259.171 117.371C259.147 117.322 259.113 117.278 259.072 117.242C259.03 117.206 258.982 117.178 258.93 117.16C258.878 117.143 258.822 117.135 258.767 117.138C258.712 117.141 258.658 117.155 258.608 117.179C258.558 117.203 258.513 117.236 258.477 117.277C258.243 117.556 257.95 117.78 257.618 117.934C257.286 118.089 256.923 118.169 256.556 118.169C256.189 118.169 255.826 118.089 255.494 117.934C255.162 117.78 254.869 117.556 254.635 117.277C254.434 117.052 254.268 116.8 254.14 116.529H256.557C256.668 116.529 256.775 116.486 256.854 116.408C256.932 116.331 256.977 116.226 256.977 116.116C256.977 116.007 256.932 115.902 256.854 115.824C256.775 115.747 256.668 115.703 256.557 115.703H253.874C253.794 115.278 253.794 114.841 253.874 114.415H256.557C256.668 114.415 256.775 114.372 256.854 114.294C256.932 114.217 256.977 114.112 256.977 114.002C256.977 113.893 256.932 113.788 256.854 113.71C256.775 113.633 256.668 113.59 256.557 113.59H254.14C254.267 113.318 254.434 113.066 254.635 112.841C254.869 112.562 255.162 112.337 255.494 112.183C255.826 112.029 256.189 111.949 256.556 111.949C256.923 111.949 257.286 112.029 257.618 112.183C257.95 112.337 258.243 112.562 258.477 112.841C258.513 112.881 258.558 112.915 258.608 112.938C258.658 112.962 258.712 112.976 258.767 112.979C258.822 112.982 258.878 112.975 258.93 112.957C258.982 112.939 259.03 112.911 259.072 112.875C259.113 112.839 259.147 112.795 259.171 112.746C259.195 112.697 259.209 112.644 259.212 112.59C259.216 112.536 259.208 112.481 259.19 112.43C259.172 112.378 259.144 112.331 259.107 112.29C258.795 111.924 258.404 111.629 257.964 111.426C257.523 111.224 257.042 111.119 256.556 111.119C256.069 111.119 255.589 111.224 255.148 111.426C254.708 111.629 254.317 111.924 254.005 112.29C253.667 112.67 253.406 113.11 253.235 113.585H252.34C252.229 113.585 252.122 113.629 252.043 113.706C251.964 113.784 251.92 113.889 251.92 113.998C251.92 114.108 251.964 114.213 252.043 114.29C252.122 114.368 252.229 114.411 252.34 114.411H253.028C252.965 114.838 252.965 115.272 253.028 115.699H252.34C252.284 115.699 252.229 115.71 252.177 115.732C252.126 115.753 252.079 115.784 252.04 115.823C252.001 115.862 251.97 115.909 251.95 115.96C251.929 116.011 251.919 116.066 251.92 116.121V116.121Z" fill="#081635"/>
<g filter="url(#filter1_d_16_226)">
<rect x="15" y="134" width="257" height="99.9444" rx="10.3838" fill="white"/>
</g>
<rect x="271.027" y="134.973" width="105.785" height="255.053" rx="9.41035" transform="rotate(90 271.027 134.973)" fill="#F8F9FC" stroke="white" stroke-width="1.94697"/>
<path d="M104.507 176.066V164.739H108.545C109.426 164.739 110.156 164.899 110.735 165.22C111.314 165.541 111.747 165.979 112.035 166.536C112.322 167.089 112.466 167.713 112.466 168.406C112.466 169.103 112.321 169.73 112.029 170.286C111.742 170.839 111.307 171.278 110.724 171.603C110.145 171.924 109.417 172.084 108.539 172.084H105.763V170.635H108.384C108.941 170.635 109.393 170.539 109.739 170.347C110.086 170.152 110.34 169.886 110.503 169.551C110.665 169.215 110.746 168.833 110.746 168.406C110.746 167.978 110.665 167.598 110.503 167.266C110.34 166.934 110.084 166.674 109.734 166.486C109.387 166.298 108.93 166.204 108.362 166.204H106.216V176.066H104.507ZM118.043 176.238C117.247 176.238 116.551 176.055 115.958 175.69C115.364 175.325 114.903 174.815 114.575 174.158C114.247 173.502 114.083 172.735 114.083 171.857C114.083 170.976 114.247 170.205 114.575 169.545C114.903 168.885 115.364 168.373 115.958 168.008C116.551 167.642 117.247 167.46 118.043 167.46C118.84 167.46 119.535 167.642 120.128 168.008C120.722 168.373 121.183 168.885 121.511 169.545C121.839 170.205 122.003 170.976 122.003 171.857C122.003 172.735 121.839 173.502 121.511 174.158C121.183 174.815 120.722 175.325 120.128 175.69C119.535 176.055 118.84 176.238 118.043 176.238ZM118.049 174.85C118.565 174.85 118.993 174.713 119.332 174.44C119.671 174.167 119.922 173.804 120.084 173.351C120.25 172.897 120.333 172.397 120.333 171.852C120.333 171.31 120.25 170.812 120.084 170.358C119.922 169.901 119.671 169.534 119.332 169.258C118.993 168.981 118.565 168.843 118.049 168.843C117.529 168.843 117.097 168.981 116.754 169.258C116.415 169.534 116.162 169.901 115.997 170.358C115.834 170.812 115.753 171.31 115.753 171.852C115.753 172.397 115.834 172.897 115.997 173.351C116.162 173.804 116.415 174.167 116.754 174.44C117.097 174.713 117.529 174.85 118.049 174.85ZM125.666 176.066L123.166 167.571H124.875L126.54 173.81H126.623L128.294 167.571H130.003L131.662 173.782H131.745L133.399 167.571H135.108L132.613 176.066H130.926L129.201 169.932H129.074L127.348 176.066H125.666ZM140.314 176.238C139.477 176.238 138.756 176.059 138.151 175.701C137.55 175.34 137.086 174.833 136.758 174.18C136.433 173.524 136.271 172.755 136.271 171.874C136.271 171.004 136.433 170.237 136.758 169.573C137.086 168.909 137.543 168.391 138.129 168.019C138.719 167.646 139.409 167.46 140.198 167.46C140.677 167.46 141.142 167.539 141.592 167.698C142.042 167.856 142.446 168.105 142.803 168.444C143.161 168.784 143.443 169.224 143.649 169.766C143.856 170.305 143.959 170.959 143.959 171.73V172.316H137.206V171.077H142.339C142.339 170.642 142.25 170.257 142.073 169.921C141.896 169.582 141.647 169.315 141.326 169.119C141.009 168.924 140.637 168.826 140.209 168.826C139.744 168.826 139.339 168.94 138.992 169.169C138.649 169.394 138.384 169.689 138.196 170.054C138.011 170.415 137.919 170.808 137.919 171.232V172.2C137.919 172.768 138.019 173.251 138.218 173.649C138.421 174.048 138.703 174.352 139.064 174.562C139.425 174.768 139.848 174.872 140.331 174.872C140.644 174.872 140.93 174.827 141.188 174.739C141.446 174.647 141.669 174.51 141.857 174.33C142.045 174.149 142.189 173.926 142.289 173.66L143.854 173.942C143.729 174.403 143.504 174.807 143.179 175.154C142.859 175.497 142.455 175.764 141.968 175.956C141.485 176.144 140.934 176.238 140.314 176.238ZM146.028 176.066V167.571H147.626V168.92H147.715C147.87 168.463 148.143 168.103 148.533 167.842C148.928 167.576 149.374 167.443 149.872 167.443C149.975 167.443 150.097 167.447 150.237 167.454C150.381 167.462 150.493 167.471 150.574 167.482V169.064C150.508 169.046 150.39 169.025 150.22 169.003C150.051 168.977 149.881 168.964 149.712 168.964C149.321 168.964 148.972 169.047 148.666 169.213C148.364 169.376 148.124 169.602 147.947 169.894C147.77 170.181 147.682 170.509 147.682 170.878V176.066H146.028ZM155.597 176.238C154.76 176.238 154.039 176.059 153.434 175.701C152.833 175.34 152.368 174.833 152.04 174.18C151.716 173.524 151.553 172.755 151.553 171.874C151.553 171.004 151.716 170.237 152.04 169.573C152.368 168.909 152.826 168.391 153.412 168.019C154.002 167.646 154.691 167.46 155.481 167.46C155.96 167.46 156.424 167.539 156.874 167.698C157.324 167.856 157.728 168.105 158.086 168.444C158.443 168.784 158.725 169.224 158.932 169.766C159.138 170.305 159.242 170.959 159.242 171.73V172.316H152.488V171.077H157.621C157.621 170.642 157.533 170.257 157.356 169.921C157.179 169.582 156.93 169.315 156.609 169.119C156.292 168.924 155.919 168.826 155.492 168.826C155.027 168.826 154.621 168.94 154.275 169.169C153.932 169.394 153.666 169.689 153.478 170.054C153.294 170.415 153.202 170.808 153.202 171.232V172.2C153.202 172.768 153.301 173.251 153.5 173.649C153.703 174.048 153.985 174.352 154.347 174.562C154.708 174.768 155.13 174.872 155.613 174.872C155.927 174.872 156.212 174.827 156.471 174.739C156.729 174.647 156.952 174.51 157.14 174.33C157.328 174.149 157.472 173.926 157.571 173.66L159.137 173.942C159.011 174.403 158.786 174.807 158.462 175.154C158.141 175.497 157.737 175.764 157.25 175.956C156.767 176.144 156.216 176.238 155.597 176.238ZM164.491 176.232C163.805 176.232 163.193 176.057 162.654 175.707C162.12 175.353 161.699 174.85 161.393 174.197C161.091 173.541 160.94 172.753 160.94 171.835C160.94 170.917 161.093 170.131 161.399 169.479C161.709 168.826 162.133 168.326 162.671 167.98C163.209 167.633 163.82 167.46 164.502 167.46C165.029 167.46 165.453 167.548 165.774 167.725C166.098 167.899 166.349 168.102 166.526 168.334C166.707 168.566 166.847 168.771 166.947 168.948H167.046V164.739H168.7V176.066H167.085V174.744H166.947C166.847 174.925 166.703 175.132 166.515 175.364C166.331 175.596 166.076 175.799 165.752 175.972C165.427 176.146 165.007 176.232 164.491 176.232ZM164.856 174.822C165.331 174.822 165.733 174.697 166.062 174.446C166.393 174.191 166.644 173.839 166.814 173.389C166.987 172.939 167.074 172.416 167.074 171.818C167.074 171.228 166.989 170.712 166.819 170.27C166.65 169.827 166.401 169.482 166.073 169.235C165.744 168.988 165.339 168.865 164.856 168.865C164.358 168.865 163.943 168.994 163.611 169.252C163.279 169.51 163.029 169.862 162.859 170.308C162.693 170.755 162.61 171.258 162.61 171.818C162.61 172.386 162.695 172.897 162.865 173.351C163.034 173.804 163.285 174.164 163.617 174.429C163.952 174.691 164.365 174.822 164.856 174.822ZM175.782 176.066V164.739H177.436V168.948H177.536C177.632 168.771 177.77 168.566 177.951 168.334C178.131 168.102 178.382 167.899 178.703 167.725C179.024 167.548 179.448 167.46 179.975 167.46C180.661 167.46 181.273 167.633 181.811 167.98C182.35 168.326 182.772 168.826 183.078 169.479C183.388 170.131 183.543 170.917 183.543 171.835C183.543 172.753 183.39 173.541 183.084 174.197C182.778 174.85 182.357 175.353 181.823 175.707C181.288 176.057 180.678 176.232 179.992 176.232C179.475 176.232 179.053 176.146 178.725 175.972C178.401 175.799 178.146 175.596 177.962 175.364C177.777 175.132 177.635 174.925 177.536 174.744H177.398V176.066H175.782ZM177.403 171.818C177.403 172.416 177.49 172.939 177.663 173.389C177.836 173.839 178.087 174.191 178.415 174.446C178.744 174.697 179.145 174.822 179.621 174.822C180.115 174.822 180.528 174.691 180.86 174.429C181.192 174.164 181.443 173.804 181.612 173.351C181.786 172.897 181.872 172.386 181.872 171.818C181.872 171.258 181.787 170.755 181.618 170.308C181.452 169.862 181.201 169.51 180.866 169.252C180.534 168.994 180.119 168.865 179.621 168.865C179.142 168.865 178.736 168.988 178.404 169.235C178.076 169.482 177.827 169.827 177.658 170.27C177.488 170.712 177.403 171.228 177.403 171.818ZM186.39 179.252C186.143 179.252 185.918 179.232 185.715 179.192C185.512 179.155 185.361 179.114 185.261 179.07L185.66 177.715C185.962 177.796 186.231 177.831 186.467 177.82C186.703 177.809 186.912 177.72 187.092 177.554C187.277 177.388 187.439 177.117 187.579 176.741L187.784 176.177L184.675 167.571H186.445L188.597 174.164H188.685L190.837 167.571H192.612L189.111 177.2C188.949 177.643 188.742 178.017 188.492 178.323C188.241 178.633 187.942 178.865 187.596 179.02C187.249 179.175 186.847 179.252 186.39 179.252Z" fill="#8792A2"/>
<path d="M248.243 172.904L255.664 160.62H244.586L243.076 163.025C243.072 163.061 243.059 163.097 243.039 163.128C243.019 163.159 242.992 163.186 242.96 163.207C242.945 163.228 242.96 163.253 242.94 163.276L242.564 163.9H249.234L242.188 175.653L241.835 176.184H254.352L256.003 172.92C255.629 172.892 255.202 172.901 255.059 172.901L248.243 172.904Z" fill="#38D4AD"/>
<path d="M227.72 171.765C226.69 172.855 225.605 173.318 224.188 173.318C221.745 173.318 220.035 171.646 219.81 169.115H231.81V168.716C231.771 165.862 231.158 164.159 229.611 162.64C228.211 161.319 226.338 160.621 224.195 160.621C223.139 160.602 222.09 160.788 221.114 161.166C220.138 161.545 219.255 162.108 218.521 162.822C217.101 164.235 216.322 166.236 216.322 168.454C216.322 170.673 217.07 172.616 218.486 174.023C219.903 175.429 221.858 176.184 224.125 176.184C227.178 176.184 229.68 174.759 231.17 172.173L231.365 171.834L231.248 171.77L227.72 171.765ZM224.151 163.377C226.284 163.377 227.796 164.506 228.28 166.424H220.055C220.7 164.453 222.136 163.377 224.151 163.377Z" fill="#38D4AD"/>
<path d="M233.469 154.9V170.777C233.469 172.674 233.96 174.042 234.941 174.881C235.922 175.72 237.223 176.139 238.844 176.139C239.196 176.139 239.581 176.121 239.988 176.092L242.029 172.793H239.011C238.508 172.793 238.025 172.606 237.67 172.272C237.314 171.939 237.114 171.487 237.114 171.015V154.9H233.469Z" fill="#38D4AD"/>
<path d="M210.791 160.221C210.791 160.221 210.79 160.399 210.791 160.553V172.459C209.193 172.589 207.619 172.604 206.023 172.463H205.969H205.919C205.162 172.373 204.465 172.027 203.96 171.49C203.456 170.954 203.177 170.264 203.176 169.55L203.185 160.553C203.186 160.399 203.185 160.354 203.185 160.221H199.313V168.564C199.313 170.253 199.551 171.602 200.027 172.611C200.427 173.53 201.091 174.327 201.945 174.914C202.782 175.455 203.741 175.808 204.747 175.948C205.848 176.111 206.962 176.19 208.076 176.183C209.324 176.187 210.569 176.08 211.794 175.863C212.764 175.701 213.722 175.483 214.663 175.209V160.221L210.791 160.221Z" fill="#38D4AD"/>
<rect x="29.2781" y="222.263" width="25.9596" height="35.0455" rx="3.89394" transform="rotate(-90 29.2781 222.263)" fill="white"/>
<mask id="mask0_16_226" style="mask-type:alpha" maskUnits="userSpaceOnUse" x="29" y="196" width="36" height="27">
<rect x="29.2781" y="196.303" width="35.0455" height="25.9596" rx="3.89394" fill="#C4C4C4"/>
</mask>
<g mask="url(#mask0_16_226)">
<rect x="29.2781" y="195.005" width="35.0455" height="7.78788" fill="#1D206E"/>
<rect x="38.364" y="206.687" width="16.8737" height="5.19192" rx="2.59596" fill="#1D206E"/>
<rect x="29.2781" y="215.772" width="35.0455" height="7.78788" fill="#EDB940"/>
</g>
<rect x="29.7631" y="221.778" width="24.9896" height="34.0755" rx="3.40894" transform="rotate(-90 29.7631 221.778)" stroke="#9CA3AF" stroke-width="0.97"/>
<rect x="77.303" y="222.263" width="25.9596" height="35.0455" rx="3.89394" transform="rotate(-90 77.303 222.263)" fill="#111827"/>
<mask id="mask1_16_226" style="mask-type:alpha" maskUnits="userSpaceOnUse" x="77" y="196" width="36" height="27">
<rect x="77.303" y="196.303" width="35.0455" height="25.9596" rx="3.89394" fill="#C4C4C4"/>
</mask>
<g mask="url(#mask1_16_226)">
<rect x="81.197" y="200.196" width="16.8737" height="16.8737" rx="8.43687" fill="#D93024"/>
<rect x="91.5808" y="200.196" width="16.8737" height="16.8737" rx="8.43687" fill="#ECA43A"/>
<path fill-rule="evenodd" clip-rule="evenodd" d="M94.8258 201.983C96.801 203.528 98.0707 205.933 98.0707 208.634C98.0707 211.336 96.801 213.741 94.8258 215.285C92.8505 213.741 91.5808 211.336 91.5808 208.634C91.5808 205.933 92.8505 203.528 94.8258 201.983Z" fill="#EB692D"/>
</g>
<rect x="77.7897" y="221.776" width="24.9861" height="34.072" rx="3.4072" transform="rotate(-90 77.7897 221.776)" stroke="#A6A4A4" stroke-width="0.973485"/>
<rect x="125.329" y="222.263" width="25.9596" height="35.0455" rx="3.89394" transform="rotate(-90 125.329 222.263)" fill="white"/>
<mask id="mask2_16_226" style="mask-type:alpha" maskUnits="userSpaceOnUse" x="125" y="196" width="36" height="27">
<rect x="125.329" y="196.303" width="35.0455" height="25.9596" rx="3.89394" fill="#C4C4C4"/>
</mask>
<g mask="url(#mask2_16_226)">
<rect x="125.329" y="196.303" width="35.0455" height="27.2576" fill="#306FC9"/>
</g>
<rect x="125.814" y="221.778" width="24.9896" height="34.0755" rx="3.40894" transform="rotate(-90 125.814 221.778)" stroke="#9CA3AF" stroke-width="0.97"/>
<rect x="221.379" y="222.263" width="25.9596" height="35.0455" rx="3.89394" transform="rotate(-90 221.379 222.263)" fill="white"/>
<mask id="mask3_16_226" style="mask-type:alpha" maskUnits="userSpaceOnUse" x="221" y="196" width="36" height="27">
<rect x="221.379" y="196.303" width="35.0455" height="25.9596" rx="3.89394" fill="#C4C4C4"/>
</mask>
<g mask="url(#mask3_16_226)">
<rect x="221.379" y="196.303" width="35.0455" height="27.2576" fill="#EDEDEE"/>
<path d="M235.657 209.151H243.182M239.419 205.389V212.914" stroke="#9CA3AF" stroke-width="1.88125" stroke-linecap="round" stroke-linejoin="round"/>
</g>
<rect x="221.864" y="221.778" width="24.9896" height="34.0755" rx="3.40894" transform="rotate(-90 221.864 221.778)" stroke="#9CA3AF" stroke-width="0.97" stroke-linejoin="round" stroke-dasharray="5.19 5.19"/>
<rect x="173.354" y="222.263" width="25.9596" height="35.0455" rx="3.89394" transform="rotate(-90 173.354 222.263)" fill="white"/>
<mask id="mask4_16_226" style="mask-type:alpha" maskUnits="userSpaceOnUse" x="173" y="196" width="36" height="27">
<rect x="173.354" y="196.303" width="35.0455" height="25.9596" rx="3.89394" fill="#C4C4C4"/>
</mask>
<g mask="url(#mask4_16_226)">
<rect x="177.248" y="203.831" width="9.54015" height="5.45151" rx="2.72576" fill="#111827"/>
<rect x="188.151" y="203.831" width="5.45151" height="5.45151" rx="2.72576" fill="#E88633"/>
<rect x="194.965" y="203.831" width="9.54015" height="5.45151" rx="2.72576" fill="#111827"/>
<path fill-rule="evenodd" clip-rule="evenodd" d="M182.699 221.077V223.56H208.399V209.282H207.497C201.486 216.491 192.439 220.901 182.699 221.077Z" fill="#E88633"/>
</g>
<rect x="173.839" y="221.778" width="24.9896" height="34.0755" rx="3.40894" transform="rotate(-90 173.839 221.778)" stroke="#9CA3AF" stroke-width="0.97"/>
<path d="M301 168L301 279" stroke="#081635" stroke-width="2.5" stroke-linecap="round" stroke-linejoin="round" stroke-dasharray="11 11"/>
<path d="M359 212L359 177.97C359 172.463 353.619 168 346.981 168L278 168" stroke="#081635" stroke-width="2.5" stroke-linecap="round" stroke-linejoin="round" stroke-dasharray="11 11"/>
<g filter="url(#filter2_d_16_226)">
<rect x="155" y="284" width="254.505" height="165" rx="9.384" fill="white"/>
</g>
<path d="M155 291.038C155 287.151 158.151 284 162.038 284H402.962C406.849 284 410 287.151 410 291.038V311.54H155V291.038Z" fill="#081635"/>
<ellipse cx="343.19" cy="298.078" rx="4.59037" ry="4.28221" fill="white"/>
<ellipse cx="363.387" cy="298.078" rx="4.59037" ry="4.28221" fill="#F9D272"/>
<ellipse cx="383.582" cy="298.078" rx="4.59037" ry="4.28221" fill="#FFAA72"/>
<mask id="mask5_16_226" style="mask-type:alpha" maskUnits="userSpaceOnUse" x="155" y="313" width="255" height="133">
<rect x="155" y="313" width="255" height="133" rx="9.384" fill="#C4C4C4"/>
</mask>
<g mask="url(#mask5_16_226)">
<rect x="184" y="339" width="90.78" height="77.52" rx="6.5257" fill="#EDF1FC"/>
<rect x="283" y="342" width="58" height="6" rx="3" fill="#EDF1FC"/>
<rect x="282.71" y="357" width="83.4082" height="6.34074" rx="3.17037" fill="#EDF1FC"/>
<rect x="282" y="382" width="93.3127" height="33.5342" rx="8.55065" fill="#38D4AD"/>
<path d="M301.854 397.138C300.463 395.746 298.206 395.746 296.814 397.138L293.25 400.702C291.858 402.094 291.858 404.35 293.25 405.742C294.642 407.134 296.899 407.134 298.29 405.742L299.272 404.761M298.596 400.396C299.988 401.788 302.245 401.788 303.637 400.396L307.201 396.832C308.592 395.44 308.592 393.184 307.201 391.792C305.809 390.4 303.552 390.4 302.16 391.792L301.18 392.772" stroke="white" stroke-width="2.47862" stroke-linecap="round" stroke-linejoin="round"/>
<path fill-rule="evenodd" clip-rule="evenodd" d="M245.222 357.911H212.641C211.691 358.013 210.8 358.437 210.118 359.118C209.437 359.8 209.013 360.691 208.911 361.641V385.499L219.074 375.336L219.074 375.336C220.212 374.199 221.755 373.56 223.364 373.56C224.973 373.56 226.516 374.199 227.654 375.336L227.654 375.336L233.636 381.319L237.05 377.905L237.051 377.904C238.188 376.767 239.731 376.128 241.34 376.128C242.949 376.128 244.492 376.767 245.63 377.904L245.63 377.905L248.089 380.363V360.778C248.089 359.195 246.805 357.911 245.222 357.911ZM208.911 388.134V393.359C209.013 394.309 209.437 395.2 210.118 395.881C210.8 396.563 211.692 396.987 212.642 397.089H244.358C245.308 396.987 246.2 396.563 246.881 395.881C247.563 395.2 247.987 394.308 248.089 393.358V382.998L244.313 379.222L244.313 379.222C243.524 378.433 242.455 377.991 241.34 377.991C240.225 377.991 239.156 378.434 238.367 379.222L234.953 382.636L239.431 387.114C239.794 387.477 239.794 388.067 239.431 388.431C239.067 388.794 238.477 388.794 238.114 388.431L232.977 383.295L226.337 376.654C225.548 375.865 224.479 375.423 223.364 375.423C222.249 375.423 221.18 375.865 220.391 376.654L208.911 388.134ZM211.778 356C209.139 356 207 358.139 207 360.778V394.222C207 396.861 209.139 399 211.778 399H245.222C247.861 399 250 396.861 250 394.222V360.778C250 358.139 247.861 356 245.222 356H211.778ZM234.865 371.73C235.895 371.73 236.73 370.895 236.73 369.865C236.73 368.835 235.895 368 234.865 368C233.835 368 233 368.835 233 369.865C233 370.895 233.835 371.73 234.865 371.73Z" fill="#081635"/>
</g>
<g filter="url(#filter3_d_16_226)">
<rect x="322" y="219" width="222" height="54" rx="8" fill="white"/>
</g>
<path d="M322 227C322 222.582 325.582 219 330 219H378V273H330C325.582 273 322 269.418 322 265V227Z" fill="#38D4AD"/>
<path d="M354.91 244.14C352.89 242.12 349.615 242.12 347.596 244.14L342.424 249.311C340.404 251.331 340.404 254.605 342.424 256.625C344.444 258.645 347.718 258.645 349.738 256.625L351.162 255.201M350.182 248.868C352.201 250.887 355.476 250.887 357.495 248.868L362.667 243.696C364.687 241.676 364.687 238.402 362.667 236.382C360.647 234.362 357.373 234.362 355.353 236.382L353.932 237.804" stroke="white" stroke-width="2.66667" stroke-linecap="round" stroke-linejoin="round"/>
<path d="M398.982 254C398.072 254 397.617 253.538 397.617 252.614V240.497C397.617 239.587 398.065 239.132 398.961 239.132C399.857 239.132 400.305 239.587 400.305 240.497V251.711H406.395C407.179 251.711 407.571 252.089 407.571 252.845C407.571 253.615 407.179 254 406.395 254H398.982ZM410.564 241.631C410.074 241.631 409.689 241.512 409.409 241.274C409.143 241.022 409.01 240.679 409.01 240.245C409.01 239.797 409.143 239.454 409.409 239.216C409.689 238.978 410.074 238.859 410.564 238.859C411.6 238.859 412.118 239.321 412.118 240.245C412.118 241.169 411.6 241.631 410.564 241.631ZM410.564 254.147C410.144 254.147 409.822 254.021 409.598 253.769C409.374 253.517 409.262 253.167 409.262 252.719V245.012C409.262 244.06 409.696 243.584 410.564 243.584C411.446 243.584 411.887 244.06 411.887 245.012V252.719C411.887 253.167 411.775 253.517 411.551 253.769C411.327 254.021 410.998 254.147 410.564 254.147ZM416.022 254.168C415.154 254.168 414.72 253.72 414.72 252.824V244.886C414.72 244.004 415.147 243.563 416.001 243.563C416.855 243.563 417.282 244.004 417.282 244.886V245.327C417.632 244.739 418.101 244.291 418.689 243.983C419.291 243.675 419.963 243.521 420.705 243.521C423.127 243.521 424.338 244.928 424.338 247.742V252.824C424.338 253.72 423.904 254.168 423.036 254.168C422.154 254.168 421.713 253.72 421.713 252.824V247.868C421.713 247.07 421.559 246.489 421.251 246.125C420.957 245.761 420.495 245.579 419.865 245.579C419.095 245.579 418.479 245.824 418.017 246.314C417.569 246.79 417.345 247.427 417.345 248.225V252.824C417.345 253.72 416.904 254.168 416.022 254.168ZM428.411 254.168C427.543 254.168 427.109 253.72 427.109 252.824V240.35C427.109 239.468 427.543 239.027 428.411 239.027C429.293 239.027 429.734 239.468 429.734 240.35V248.099H429.776L433.241 244.445C433.521 244.165 433.766 243.948 433.976 243.794C434.186 243.64 434.473 243.563 434.837 243.563C435.201 243.563 435.474 243.661 435.656 243.857C435.852 244.039 435.95 244.263 435.95 244.529C435.95 244.795 435.824 245.061 435.572 245.327L432.422 248.645L435.929 252.425C436.181 252.691 436.293 252.964 436.265 253.244C436.251 253.51 436.139 253.734 435.929 253.916C435.719 254.084 435.453 254.168 435.131 254.168C434.739 254.168 434.424 254.091 434.186 253.937C433.962 253.783 433.71 253.552 433.43 253.244L429.776 249.422H429.734V252.824C429.734 253.72 429.293 254.168 428.411 254.168ZM448.227 254.21C447.331 254.21 446.54 253.993 445.854 253.559C445.182 253.125 444.657 252.509 444.279 251.711C443.901 250.899 443.712 249.947 443.712 248.855C443.712 247.749 443.901 246.804 444.279 246.02C444.657 245.222 445.182 244.606 445.854 244.172C446.54 243.738 447.331 243.521 448.227 243.521C448.955 243.521 449.613 243.682 450.201 244.004C450.789 244.326 451.23 244.753 451.524 245.285V240.35C451.524 239.468 451.958 239.027 452.826 239.027C453.708 239.027 454.149 239.468 454.149 240.35V252.824C454.149 253.72 453.715 254.168 452.847 254.168C451.979 254.168 451.545 253.72 451.545 252.824V252.383C451.251 252.943 450.81 253.391 450.222 253.727C449.634 254.049 448.969 254.21 448.227 254.21ZM448.962 252.215C449.746 252.215 450.376 251.935 450.852 251.375C451.328 250.801 451.566 249.961 451.566 248.855C451.566 247.735 451.328 246.902 450.852 246.356C450.376 245.796 449.746 245.516 448.962 245.516C448.178 245.516 447.548 245.796 447.072 246.356C446.596 246.902 446.358 247.735 446.358 248.855C446.358 249.961 446.596 250.801 447.072 251.375C447.548 251.935 448.178 252.215 448.962 252.215ZM462.036 254.21C460.874 254.21 459.873 253.993 459.033 253.559C458.193 253.125 457.542 252.509 457.08 251.711C456.632 250.913 456.408 249.968 456.408 248.876C456.408 247.812 456.625 246.881 457.059 246.083C457.507 245.285 458.116 244.662 458.886 244.214C459.67 243.752 460.559 243.521 461.553 243.521C463.009 243.521 464.157 243.983 464.997 244.907C465.851 245.831 466.278 247.091 466.278 248.687C466.278 249.205 465.942 249.464 465.27 249.464H458.928C459.124 251.298 460.174 252.215 462.078 252.215C462.442 252.215 462.848 252.173 463.296 252.089C463.758 251.991 464.192 251.83 464.598 251.606C464.962 251.396 465.27 251.333 465.522 251.417C465.774 251.487 465.949 251.634 466.047 251.858C466.159 252.082 466.173 252.334 466.089 252.614C466.019 252.88 465.823 253.111 465.501 253.307C465.011 253.615 464.444 253.846 463.8 254C463.17 254.14 462.582 254.21 462.036 254.21ZM461.658 245.306C460.888 245.306 460.265 245.544 459.789 246.02C459.313 246.496 459.026 247.14 458.928 247.952H464.094C464.038 247.098 463.8 246.447 463.38 245.999C462.974 245.537 462.4 245.306 461.658 245.306ZM475.57 257.948C474.702 257.948 474.268 257.507 474.268 256.625V244.886C474.268 244.004 474.695 243.563 475.549 243.563C476.417 243.563 476.851 244.004 476.851 244.886V245.327C477.145 244.781 477.586 244.347 478.174 244.025C478.762 243.689 479.434 243.521 480.19 243.521C481.086 243.521 481.87 243.738 482.542 244.172C483.228 244.606 483.76 245.222 484.138 246.02C484.516 246.804 484.705 247.749 484.705 248.855C484.705 249.947 484.516 250.899 484.138 251.711C483.76 252.509 483.235 253.125 482.563 253.559C481.891 253.993 481.1 254.21 480.19 254.21C479.462 254.21 478.804 254.056 478.216 253.748C477.642 253.426 477.201 252.999 476.893 252.467V256.625C476.893 257.507 476.452 257.948 475.57 257.948ZM479.455 252.215C480.239 252.215 480.869 251.935 481.345 251.375C481.821 250.801 482.059 249.961 482.059 248.855C482.059 247.735 481.821 246.902 481.345 246.356C480.869 245.796 480.239 245.516 479.455 245.516C478.671 245.516 478.041 245.796 477.565 246.356C477.089 246.902 476.851 247.735 476.851 248.855C476.851 249.961 477.089 250.801 477.565 251.375C478.041 251.935 478.671 252.215 479.455 252.215ZM490.346 254.21C489.604 254.21 488.939 254.07 488.351 253.79C487.777 253.496 487.322 253.104 486.986 252.614C486.664 252.124 486.503 251.571 486.503 250.955C486.503 250.199 486.699 249.604 487.091 249.17C487.483 248.722 488.12 248.4 489.002 248.204C489.884 248.008 491.067 247.91 492.551 247.91H493.286V247.469C493.286 246.769 493.132 246.265 492.824 245.957C492.516 245.649 491.998 245.495 491.27 245.495C490.864 245.495 490.423 245.544 489.947 245.642C489.485 245.74 488.995 245.908 488.477 246.146C488.141 246.3 487.861 246.321 487.637 246.209C487.413 246.083 487.259 245.894 487.175 245.642C487.105 245.376 487.119 245.11 487.217 244.844C487.329 244.578 487.546 244.382 487.868 244.256C488.512 243.99 489.128 243.801 489.716 243.689C490.318 243.577 490.864 243.521 491.354 243.521C492.852 243.521 493.965 243.871 494.693 244.571C495.421 245.257 495.785 246.328 495.785 247.784V252.824C495.785 253.72 495.379 254.168 494.567 254.168C493.741 254.168 493.328 253.72 493.328 252.824V252.362C493.09 252.936 492.712 253.391 492.194 253.727C491.676 254.049 491.06 254.21 490.346 254.21ZM490.892 252.404C491.578 252.404 492.145 252.166 492.593 251.69C493.055 251.214 493.286 250.612 493.286 249.884V249.422H492.572C491.256 249.422 490.339 249.527 489.821 249.737C489.317 249.933 489.065 250.297 489.065 250.829C489.065 251.291 489.226 251.669 489.548 251.963C489.87 252.257 490.318 252.404 490.892 252.404ZM503.343 257.99C502.587 257.99 501.852 257.92 501.138 257.78C500.438 257.64 499.801 257.423 499.227 257.129C498.891 256.961 498.688 256.744 498.618 256.478C498.562 256.226 498.59 255.981 498.702 255.743C498.814 255.505 498.982 255.33 499.206 255.218C499.444 255.12 499.696 255.134 499.962 255.26C500.578 255.568 501.159 255.764 501.705 255.848C502.265 255.946 502.741 255.995 503.133 255.995C505.009 255.995 505.947 255.092 505.947 253.286V251.879C505.653 252.453 505.198 252.908 504.582 253.244C503.98 253.58 503.308 253.748 502.566 253.748C501.642 253.748 500.837 253.538 500.151 253.118C499.465 252.684 498.933 252.082 498.555 251.312C498.177 250.542 497.988 249.646 497.988 248.624C497.988 247.602 498.177 246.713 498.555 245.957C498.933 245.187 499.465 244.592 500.151 244.172C500.837 243.738 501.642 243.521 502.566 243.521C503.308 243.521 503.98 243.682 504.582 244.004C505.184 244.326 505.625 244.767 505.905 245.327V244.886C505.905 244.452 506.017 244.123 506.241 243.899C506.479 243.675 506.801 243.563 507.207 243.563C508.075 243.563 508.509 244.004 508.509 244.886V252.971C508.509 254.637 508.068 255.89 507.186 256.73C506.304 257.57 505.023 257.99 503.343 257.99ZM503.28 251.753C504.092 251.753 504.736 251.473 505.212 250.913C505.688 250.353 505.926 249.59 505.926 248.624C505.926 247.658 505.688 246.902 505.212 246.356C504.736 245.796 504.092 245.516 503.28 245.516C502.468 245.516 501.824 245.796 501.348 246.356C500.872 246.902 500.634 247.658 500.634 248.624C500.634 249.59 500.872 250.353 501.348 250.913C501.824 251.473 502.468 251.753 503.28 251.753ZM516.016 254.21C514.952 254.21 514.028 253.993 513.244 253.559C512.46 253.125 511.851 252.509 511.417 251.711C510.983 250.899 510.766 249.947 510.766 248.855C510.766 247.763 510.983 246.818 511.417 246.02C511.851 245.222 512.46 244.606 513.244 244.172C514.028 243.738 514.952 243.521 516.016 243.521C517.08 243.521 518.004 243.738 518.788 244.172C519.572 244.606 520.181 245.222 520.615 246.02C521.049 246.818 521.266 247.763 521.266 248.855C521.266 249.947 521.049 250.899 520.615 251.711C520.181 252.509 519.572 253.125 518.788 253.559C518.004 253.993 517.08 254.21 516.016 254.21ZM516.016 252.215C516.8 252.215 517.43 251.935 517.906 251.375C518.382 250.801 518.62 249.961 518.62 248.855C518.62 247.735 518.382 246.902 517.906 246.356C517.43 245.796 516.8 245.516 516.016 245.516C515.232 245.516 514.602 245.796 514.126 246.356C513.65 246.902 513.412 247.735 513.412 248.855C513.412 249.961 513.65 250.801 514.126 251.375C514.602 251.935 515.232 252.215 516.016 252.215Z" fill="#081635"/>
<g filter="url(#filter4_d_16_226)">
<rect x="322.5" y="219.5" width="221" height="53" rx="7.5" stroke="#38D4AD" shape-rendering="crispEdges"/>
</g>
<g clip-path="url(#clip0_16_226)">
<path d="M599.494 252.05C599.502 251.723 599.476 251.395 599.418 251.072C599.03 249.212 597.526 248.006 595.587 248.006C588.762 248.006 581.937 248.006 575.11 248.006C572.19 248.006 569.269 247.993 566.349 248.006C565.525 248.009 564.727 248.296 564.084 248.819C563.441 249.342 562.99 250.071 562.805 250.888C562.638 251.7 562.675 252.565 562.684 253.405C562.684 253.89 563.121 254.223 563.59 254.231C563.823 254.24 564.05 254.158 564.224 254.001C564.399 253.844 564.507 253.625 564.527 253.388C564.547 253.17 564.555 252.95 564.549 252.731C564.549 252.273 564.549 251.815 564.549 251.357L564.712 251.315L575.231 260.494C571.7 263.575 568.206 266.623 564.606 269.766C564.584 269.303 564.566 268.993 564.558 268.682C564.551 268.371 564.567 268.057 564.558 267.74C564.512 267.146 564.136 266.77 563.601 266.77C563.066 266.77 562.688 267.175 562.675 267.778C562.675 268.155 562.675 268.532 562.675 268.909C562.675 271.37 564.271 273.004 566.684 273.004C576.291 273.004 585.899 273.004 595.508 273.004C595.785 273.012 596.062 272.996 596.335 272.955C598.272 272.606 599.509 271.059 599.511 268.96C599.507 263.321 599.502 257.684 599.494 252.05ZM566.436 250.296C566.343 250.215 566.251 250.13 566.065 249.949H596.061C595.943 250.081 595.876 250.162 595.808 250.228C591.171 254.266 586.536 258.305 581.9 262.344C581.293 262.874 580.878 262.876 580.273 262.344C575.66 258.331 571.047 254.315 566.436 250.296ZM566.047 271.05L576.688 261.754C577.523 262.491 578.332 263.208 579.143 263.92C580.382 265.009 581.778 265.015 583.015 263.933C583.83 263.221 584.637 262.497 585.478 261.753L596.124 271.05H566.047ZM597.485 269.695L586.952 260.501L597.463 251.315C597.67 251.786 597.685 269.148 597.485 269.695Z" fill="#081635"/>
<path d="M566.438 263.867C566.678 263.867 566.909 263.772 567.082 263.602C567.255 263.431 567.356 263.199 567.363 262.955C567.372 262.829 567.356 262.704 567.316 262.585C567.276 262.466 567.213 262.356 567.131 262.263C567.049 262.169 566.949 262.093 566.838 262.039C566.726 261.985 566.605 261.954 566.482 261.948C566.359 261.935 566.235 261.931 566.112 261.935C563.484 261.935 560.857 261.935 558.231 261.935C558.032 261.929 557.833 261.952 557.641 262.003C557.508 262.046 557.387 262.118 557.286 262.215C557.184 262.312 557.106 262.431 557.056 262.563C557.006 262.695 556.986 262.836 556.997 262.977C557.008 263.118 557.05 263.255 557.12 263.377C557.337 263.754 557.676 263.88 558.094 263.88C559.461 263.88 560.827 263.88 562.196 263.88C563.025 263.88 563.862 263.88 564.684 263.88C565.267 263.874 565.856 263.891 566.438 263.867Z" fill="#081635"/>
<path d="M560.853 259.061C561.759 259.086 562.666 259.061 563.573 259.061C564.51 259.061 565.447 259.078 566.384 259.061C567.006 259.046 567.389 258.628 567.373 258.06C567.356 257.493 566.96 257.137 566.358 257.135C564.506 257.124 562.671 257.135 560.827 257.135C560.626 257.124 560.427 257.18 560.26 257.294C560.093 257.409 559.967 257.576 559.901 257.77C559.651 258.416 560.099 259.042 560.853 259.061Z" fill="#081635"/>
<path d="M566.064 249.949H596.06C595.941 250.081 595.875 250.162 595.806 250.228C591.17 254.266 586.534 258.305 581.899 262.345C581.291 262.874 580.877 262.876 580.271 262.345C575.657 258.324 571.044 254.303 566.432 250.283C566.343 250.215 566.258 250.13 566.064 249.949Z" fill="white"/>
<path d="M596.124 271.049H566.047L576.688 261.754C577.523 262.491 578.332 263.207 579.143 263.919C580.382 265.009 581.778 265.014 583.015 263.933C583.83 263.22 584.637 262.496 585.478 261.752L596.124 271.049Z" fill="white"/>
<path d="M586.942 260.5L597.463 251.314C597.671 251.78 597.685 269.141 597.476 269.688C597.267 270.235 586.942 260.5 586.942 260.5Z" fill="white"/>
</g>
<path d="M441.649 431.142C441.222 430.715 440.528 430.715 440.101 431.142C439.673 431.57 439.673 432.263 440.101 432.691L441.649 431.142ZM445.292 436.333L444.517 437.108C444.945 437.535 445.638 437.535 446.066 437.108L445.292 436.333ZM454.899 428.274C455.327 427.847 455.327 427.153 454.899 426.726C454.472 426.298 453.778 426.298 453.351 426.726L454.899 428.274ZM461.863 416.458V442.958H464.053V416.458H461.863ZM458.542 446.28H436.458V448.47H458.542V446.28ZM433.137 442.958V416.458H430.947V442.958H433.137ZM436.458 413.137H440.875V410.947H436.458V413.137ZM454.125 413.137H458.542V410.947H454.125V413.137ZM436.458 446.28C434.624 446.28 433.137 444.793 433.137 442.958H430.947C430.947 446.002 433.414 448.47 436.458 448.47V446.28ZM461.863 442.958C461.863 444.793 460.376 446.28 458.542 446.28V448.47C461.586 448.47 464.053 446.002 464.053 442.958H461.863ZM464.053 416.458C464.053 413.414 461.586 410.947 458.542 410.947V413.137C460.376 413.137 461.863 414.624 461.863 416.458H464.053ZM433.137 416.458C433.137 414.624 434.624 413.137 436.458 413.137V410.947C433.414 410.947 430.947 413.414 430.947 416.458H433.137ZM440.101 432.691L444.517 437.108L446.066 435.559L441.649 431.142L440.101 432.691ZM446.066 437.108L454.899 428.274L453.351 426.726L444.517 435.559L446.066 437.108ZM445.292 408.72H449.708V406.53H445.292V408.72ZM449.708 415.363H445.292V417.553H449.708V415.363ZM445.292 415.363C443.457 415.363 441.97 413.876 441.97 412.042H439.78C439.78 415.086 442.248 417.553 445.292 417.553V415.363ZM453.03 412.042C453.03 413.876 451.543 415.363 449.708 415.363V417.553C452.752 417.553 455.22 415.086 455.22 412.042H453.03ZM449.708 408.72C451.543 408.72 453.03 410.207 453.03 412.042H455.22C455.22 408.998 452.752 406.53 449.708 406.53V408.72ZM445.292 406.53C442.248 406.53 439.78 408.998 439.78 412.042H441.97C441.97 410.207 443.457 408.72 445.292 408.72V406.53Z" fill="#111827"/>
<defs>
<filter id="filter0_d_16_226" x="91.52" y="0.559989" width="245.96" height="150.96" filterUnits="userSpaceOnUse" color-interpolation-filters="sRGB">
<feFlood flood-opacity="0" result="BackgroundImageFix"/>
<feColorMatrix in="SourceAlpha" type="matrix" values="0 0 0 0 0 0 0 0 0 0 0 0 0 0 0 0 0 0 127 0" result="hardAlpha"/>
<feMorphology radius="0.680001" operator="dilate" in="SourceAlpha" result="effect1_dropShadow_16_226"/>
<feOffset dy="2.04"/>
<feGaussianBlur stdDeviation="3.40001"/>
<feComposite in2="hardAlpha" operator="out"/>
<feColorMatrix type="matrix" values="0 0 0 0 0.0313726 0 0 0 0 0.0862745 0 0 0 0 0.207843 0 0 0 0.2 0"/>
<feBlend mode="normal" in2="BackgroundImageFix" result="effect1_dropShadow_16_226"/>
<feBlend mode="normal" in="SourceGraphic" in2="effect1_dropShadow_16_226" result="shape"/>
</filter>
<filter id="filter1_d_16_226" x="0.722222" y="123.616" width="285.556" height="128.5" filterUnits="userSpaceOnUse" color-interpolation-filters="sRGB">
<feFlood flood-opacity="0" result="BackgroundImageFix"/>
<feColorMatrix in="SourceAlpha" type="matrix" values="0 0 0 0 0 0 0 0 0 0 0 0 0 0 0 0 0 0 127 0" result="hardAlpha"/>
<feMorphology radius="1.29798" operator="dilate" in="SourceAlpha" result="effect1_dropShadow_16_226"/>
<feOffset dy="3.89394"/>
<feGaussianBlur stdDeviation="6.4899"/>
<feComposite in2="hardAlpha" operator="out"/>
<feColorMatrix type="matrix" values="0 0 0 0 0.0313726 0 0 0 0 0.0862745 0 0 0 0 0.207843 0 0 0 0.2 0"/>
<feBlend mode="normal" in2="BackgroundImageFix" result="effect1_dropShadow_16_226"/>
<feBlend mode="normal" in="SourceGraphic" in2="effect1_dropShadow_16_226" result="shape"/>
</filter>
<filter id="filter2_d_16_226" x="146.789" y="281.654" width="270.927" height="181.422" filterUnits="userSpaceOnUse" color-interpolation-filters="sRGB">
<feFlood flood-opacity="0" result="BackgroundImageFix"/>
<feColorMatrix in="SourceAlpha" type="matrix" values="0 0 0 0 0 0 0 0 0 0 0 0 0 0 0 0 0 0 127 0" result="hardAlpha"/>
<feOffset dy="5.865"/>
<feGaussianBlur stdDeviation="4.1055"/>
<feComposite in2="hardAlpha" operator="out"/>
<feColorMatrix type="matrix" values="0 0 0 0 0.0313726 0 0 0 0 0.0862745 0 0 0 0 0.207843 0 0 0 0.09 0"/>
<feBlend mode="normal" in2="BackgroundImageFix" result="effect1_dropShadow_16_226"/>
<feBlend mode="normal" in="SourceGraphic" in2="effect1_dropShadow_16_226" result="shape"/>
</filter>
<filter id="filter3_d_16_226" x="315" y="217" width="236" height="68" filterUnits="userSpaceOnUse" color-interpolation-filters="sRGB">
<feFlood flood-opacity="0" result="BackgroundImageFix"/>
<feColorMatrix in="SourceAlpha" type="matrix" values="0 0 0 0 0 0 0 0 0 0 0 0 0 0 0 0 0 0 127 0" result="hardAlpha"/>
<feOffset dy="5"/>
<feGaussianBlur stdDeviation="3.5"/>
<feComposite in2="hardAlpha" operator="out"/>
<feColorMatrix type="matrix" values="0 0 0 0 0.0313726 0 0 0 0 0.0862745 0 0 0 0 0.207843 0 0 0 0.09 0"/>
<feBlend mode="normal" in2="BackgroundImageFix" result="effect1_dropShadow_16_226"/>
<feBlend mode="normal" in="SourceGraphic" in2="effect1_dropShadow_16_226" result="shape"/>
</filter>
<filter id="filter4_d_16_226" x="315" y="217" width="236" height="68" filterUnits="userSpaceOnUse" color-interpolation-filters="sRGB">
<feFlood flood-opacity="0" result="BackgroundImageFix"/>
<feColorMatrix in="SourceAlpha" type="matrix" values="0 0 0 0 0 0 0 0 0 0 0 0 0 0 0 0 0 0 127 0" result="hardAlpha"/>
<feOffset dy="5"/>
<feGaussianBlur stdDeviation="3.5"/>
<feComposite in2="hardAlpha" operator="out"/>
<feColorMatrix type="matrix" values="0 0 0 0 0.0313726 0 0 0 0 0.0862745 0 0 0 0 0.207843 0 0 0 0.09 0"/>
<feBlend mode="normal" in2="BackgroundImageFix" result="effect1_dropShadow_16_226"/>
<feBlend mode="normal" in="SourceGraphic" in2="effect1_dropShadow_16_226" result="shape"/>
</filter>
<clipPath id="clip0_16_226">
<rect width="42.5" height="25" fill="white" transform="translate(557 248)"/>
</clipPath>
</defs>
</svg>
