<svg width="139" height="172" viewBox="0 0 139 172" fill="none" xmlns="http://www.w3.org/2000/svg">
<g filter="url(#filter0_d_3354_19918)">
<rect x="8" y="3" width="102.8" height="156" rx="8.07793" fill="white"/>
</g>
<g filter="url(#filter1_d_3354_19918)">
<rect x="16" y="108" width="115.775" height="38" rx="8.07793" fill="white"/>
</g>
<path d="M16 114.703C16 111.001 19.0011 108 22.7032 108H58V146H22.7032C19.0011 146 16 142.999 16 139.297V114.703Z" fill="#081635"/>
<path d="M40.343 120.183C41.3028 119.223 42.859 119.223 43.8188 120.183C44.7787 121.142 44.7787 122.699 43.8188 123.658L40.1321 127.345C39.1723 128.305 37.6161 128.305 36.6562 127.345C36.1763 126.865 35.3982 126.865 34.9183 127.345C34.4384 127.825 34.4384 128.603 34.9183 129.083C36.838 131.003 39.9504 131.003 41.87 129.083L45.5568 125.396C47.4765 123.477 47.4765 120.364 45.5568 118.445C43.6371 116.525 40.5247 116.525 38.605 118.445L36.7616 120.288C36.2817 120.768 36.2817 121.546 36.7616 122.026C37.2416 122.506 38.0197 122.506 38.4996 122.026L40.343 120.183Z" fill="#38D4AD"/>
<path d="M34.1984 126.327C35.1583 125.367 36.7145 125.367 37.6743 126.327C38.1542 126.807 38.9323 126.807 39.4122 126.327C39.8922 125.847 39.8922 125.069 39.4122 124.589C37.4926 122.67 34.3802 122.67 32.4605 124.589L28.7737 128.276C26.8541 130.196 26.8541 133.308 28.7737 135.228C30.6934 137.147 33.8058 137.147 35.7255 135.228L37.5689 133.384C38.0488 132.904 38.0488 132.126 37.5689 131.646C37.089 131.166 36.3109 131.166 35.8309 131.646L33.9876 133.49C33.0277 134.45 31.4715 134.45 30.5117 133.49C29.5518 132.53 29.5518 130.974 30.5117 130.014L34.1984 126.327Z" fill="#38D4AD"/>
<path d="M65.6524 132.291L62 121.99H64.4969L66.9292 129.555H67.0504L69.4907 121.99H71.9876L74.4118 129.521H74.533L76.9491 121.99H79.446L75.8016 132.291H73.3371L70.8159 124.854H70.6301L68.1089 132.291H65.6524Z" fill="#38D4AD"/>
<path d="M85.6812 132.291L82.0288 121.99H84.5257L86.9579 129.555H87.0792L89.5195 121.99H92.0164L94.4406 129.521H94.5618L96.9779 121.99H99.4748L95.8304 132.291H93.3659L90.8447 124.854H90.6589L88.1377 132.291H85.6812Z" fill="#38D4AD"/>
<path d="M105.71 132.291L102.058 121.99H104.554L106.987 129.555H107.108L109.548 121.99H112.045L114.469 129.521H114.591L117.007 121.99H119.504L115.859 132.291H113.395L110.873 124.854H110.688L108.167 132.291H105.71Z" fill="#38D4AD"/>
<path d="M122.951 132.418C122.509 132.418 122.129 132.288 121.812 132.029C121.494 131.765 121.335 131.448 121.335 131.077C121.335 130.71 121.494 130.397 121.812 130.138C122.129 129.874 122.509 129.742 122.951 129.742C123.393 129.742 123.773 129.874 124.09 130.138C124.408 130.397 124.567 130.71 124.567 131.077C124.567 131.323 124.492 131.549 124.341 131.754C124.195 131.955 124.001 132.116 123.759 132.237C123.517 132.358 123.247 132.418 122.951 132.418Z" fill="#38D4AD"/>
<rect x="16.609" y="108.609" width="114.557" height="36.782" rx="5.39098" stroke="#081635" stroke-width="1.21805"/>
<rect x="18" y="77" width="60" height="5" rx="2.5" fill="#D5DCF0"/>
<rect x="18" y="88" width="70" height="5" rx="2.5" fill="#D5DCF0"/>
<rect x="16" y="13" width="87" height="55" rx="5" fill="#D5DCF0"/>
<path fill-rule="evenodd" clip-rule="evenodd" d="M47.0219 26C44.8007 26 43 27.8007 43 30.0219L43 50.1313C43 52.3526 44.8007 54.1532 47.0219 54.1532L71.1532 54.1532C73.3744 54.1532 75.175 52.3526 75.175 50.1313L75.175 30.0219C75.175 27.8007 73.3744 26 71.1532 26L47.0219 26ZM71.1532 50.1313L47.0219 50.1313L55.0656 34.0438L61.0985 46.1095L65.1203 38.0657L71.1532 50.1313Z" fill="white"/>
<defs>
<filter id="filter0_d_3354_19918" x="0.931808" y="0.980516" width="116.936" height="170.136" filterUnits="userSpaceOnUse" color-interpolation-filters="sRGB">
<feFlood flood-opacity="0" result="BackgroundImageFix"/>
<feColorMatrix in="SourceAlpha" type="matrix" values="0 0 0 0 0 0 0 0 0 0 0 0 0 0 0 0 0 0 127 0" result="hardAlpha"/>
<feOffset dy="5.04871"/>
<feGaussianBlur stdDeviation="3.5341"/>
<feComposite in2="hardAlpha" operator="out"/>
<feColorMatrix type="matrix" values="0 0 0 0 0.0313726 0 0 0 0 0.0862745 0 0 0 0 0.207843 0 0 0 0.09 0"/>
<feBlend mode="normal" in2="BackgroundImageFix" result="effect1_dropShadow_3354_19918"/>
<feBlend mode="normal" in="SourceGraphic" in2="effect1_dropShadow_3354_19918" result="shape"/>
</filter>
<filter id="filter1_d_3354_19918" x="8.93181" y="105.981" width="129.912" height="52.1364" filterUnits="userSpaceOnUse" color-interpolation-filters="sRGB">
<feFlood flood-opacity="0" result="BackgroundImageFix"/>
<feColorMatrix in="SourceAlpha" type="matrix" values="0 0 0 0 0 0 0 0 0 0 0 0 0 0 0 0 0 0 127 0" result="hardAlpha"/>
<feOffset dy="5.04871"/>
<feGaussianBlur stdDeviation="3.5341"/>
<feComposite in2="hardAlpha" operator="out"/>
<feColorMatrix type="matrix" values="0 0 0 0 0.0313726 0 0 0 0 0.0862745 0 0 0 0 0.207843 0 0 0 0.09 0"/>
<feBlend mode="normal" in2="BackgroundImageFix" result="effect1_dropShadow_3354_19918"/>
<feBlend mode="normal" in="SourceGraphic" in2="effect1_dropShadow_3354_19918" result="shape"/>
</filter>
</defs>
</svg>
