<svg width="148" height="153" viewBox="0 0 148 153" fill="none" xmlns="http://www.w3.org/2000/svg">
<g filter="url(#filter0_d_3354_19917)">
<rect x="6" y="7.75977" width="116.773" height="83.1413" rx="6.34307" fill="white"/>
</g>
<path d="M6 12.5171C6 9.88968 8.12992 7.75977 10.7573 7.75977H118.243C120.87 7.75977 123 9.88968 123 12.5171V21.6368H6V12.5171Z" fill="#081635"/>
<path d="M98.5656 1H94.5871C93.0725 1 91.8447 2.02259 91.8447 3.28401V10.2071C91.8447 11.4685 93.0725 12.4911 94.5871 12.4911H98.5656C100.08 12.4911 101.308 11.4685 101.308 10.2071V3.28401C101.308 2.02259 100.08 1 98.5656 1Z" fill="#111827" stroke="white" stroke-width="1.01392" stroke-miterlimit="10"/>
<path d="M35.0266 1H31.048C29.5335 1 28.3057 2.02259 28.3057 3.28401V10.2071C28.3057 11.4685 29.5335 12.4911 31.048 12.4911H35.0266C36.5411 12.4911 37.7689 11.4685 37.7689 10.2071V3.28401C37.7689 2.02259 36.5411 1 35.0266 1Z" fill="#111827" stroke="white" stroke-width="1.01392" stroke-miterlimit="10"/>
<path d="M46.0449 36.45V38.1031C46.0449 40.3335 47.5301 42.1416 49.3621 42.1416H56.0767C57.9088 42.1416 59.3939 40.3335 59.3939 38.1031V36.45C59.3939 34.2196 57.9088 32.4115 56.0767 32.4115H49.3621C47.5301 32.4115 46.0449 34.2196 46.0449 36.45Z" fill="#C9D5F6" fill-opacity="0.6"/>
<path d="M70.3877 36.45V38.1031C70.3877 40.3335 71.8728 42.1416 73.7049 42.1416H80.4195C82.2515 42.1416 83.7367 40.3335 83.7367 38.1031V36.45C83.7367 34.2196 82.2515 32.4115 80.4195 32.4115H73.7049C71.8728 32.4115 70.3877 34.2196 70.3877 36.45Z" fill="#C9D5F6" fill-opacity="0.6"/>
<path d="M94.7305 36.45V38.1031C94.7305 40.3335 96.2156 42.1416 98.0477 42.1416H104.762C106.594 42.1416 108.079 40.3335 108.079 38.1031V36.45C108.079 34.2196 106.594 32.4115 104.762 32.4115H98.0477C96.2156 32.4115 94.7305 34.2196 94.7305 36.45Z" fill="#C9D5F6" fill-opacity="0.6"/>
<path d="M21.7031 36.45V38.1031C21.7031 40.3335 23.1883 42.1416 25.0203 42.1416H31.7349C33.567 42.1416 35.0521 40.3335 35.0521 38.1031V36.45C35.0521 34.2196 33.567 32.4115 31.7349 32.4115H25.0203C23.1883 32.4115 21.7031 34.2196 21.7031 36.45Z" fill="#C9D5F6" fill-opacity="0.6"/>
<path d="M46.0449 71.4774V73.1304C46.0449 75.3608 47.5301 77.1689 49.3621 77.1689H56.0767C57.9088 77.1689 59.3939 75.3608 59.3939 73.1304V71.4774C59.3939 69.2469 57.9088 67.4389 56.0767 67.4389H49.3621C47.5301 67.4389 46.0449 69.2469 46.0449 71.4774Z" fill="#C9D5F6" fill-opacity="0.6"/>
<path d="M70.3877 71.4774V73.1304C70.3877 75.3608 71.8728 77.1689 73.7049 77.1689H80.4195C82.2515 77.1689 83.7367 75.3608 83.7367 73.1304V71.4774C83.7367 69.2469 82.2515 67.4389 80.4195 67.4389H73.7049C71.8728 67.4389 70.3877 69.2469 70.3877 71.4774Z" fill="#C9D5F6" fill-opacity="0.6"/>
<path d="M94.7305 71.4774V73.1304C94.7305 75.3608 96.2156 77.1689 98.0477 77.1689H104.762C106.594 77.1689 108.079 75.3608 108.079 73.1304V71.4774C108.079 69.2469 106.594 67.4389 104.762 67.4389H98.0477C96.2156 67.4389 94.7305 69.2469 94.7305 71.4774Z" fill="#C9D5F6" fill-opacity="0.6"/>
<path d="M21.7031 71.4774V73.1304C21.7031 75.3608 23.1883 77.1689 25.0203 77.1689H31.7349C33.567 77.1689 35.0521 75.3608 35.0521 73.1304V71.4774C35.0521 69.2469 33.567 67.4389 31.7349 67.4389H25.0203C23.1883 67.4389 21.7031 69.2469 21.7031 71.4774Z" fill="#C9D5F6" fill-opacity="0.6"/>
<path d="M46.0449 53.9637V55.6168C46.0449 57.8472 47.5301 59.6553 49.3621 59.6553H56.0767C57.9088 59.6553 59.3939 57.8472 59.3939 55.6168V53.9637C59.3939 51.7333 57.9088 49.9252 56.0767 49.9252H49.3621C47.5301 49.9252 46.0449 51.7333 46.0449 53.9637Z" fill="#C9D5F6" fill-opacity="0.6"/>
<path d="M70.3877 53.9637V55.6168C70.3877 57.8472 71.8728 59.6553 73.7049 59.6553H80.4195C82.2515 59.6553 83.7367 57.8472 83.7367 55.6168V53.9637C83.7367 51.7333 82.2515 49.9252 80.4195 49.9252H73.7049C71.8728 49.9252 70.3877 51.7333 70.3877 53.9637Z" fill="#C9D5F6" fill-opacity="0.6"/>
<path d="M94.7305 53.9637V55.6168C94.7305 57.8472 96.2156 59.6553 98.0477 59.6553H104.762C106.594 59.6553 108.079 57.8472 108.079 55.6168V53.9637C108.079 51.7333 106.594 49.9252 104.762 49.9252H98.0477C96.2156 49.9252 94.7305 51.7333 94.7305 53.9637Z" fill="#C9D5F6" fill-opacity="0.6"/>
<path d="M21.7031 53.9637V55.6168C21.7031 57.8472 23.1883 59.6553 25.0203 59.6553H31.7349C33.567 59.6553 35.0521 57.8472 35.0521 55.6168V53.9637C35.0521 51.7333 33.567 49.9252 31.7349 49.9252H25.0203C23.1883 49.9252 21.7031 51.7333 21.7031 53.9637Z" fill="#C9D5F6" fill-opacity="0.6"/>
<path d="M112.497 132.354C127.13 132.354 138.993 120.837 138.993 106.631C138.993 92.424 127.13 80.9072 112.497 80.9072C97.863 80.9072 86 92.424 86 106.631C86 120.837 97.863 132.354 112.497 132.354Z" fill="white"/>
<path d="M138.994 106.733C138.98 102.227 137.84 97.7995 135.683 93.8723C133.527 89.9451 130.424 86.6486 126.672 84.2965C122.919 81.9445 118.641 80.6152 114.246 80.4351C109.85 80.2551 105.482 81.2304 101.558 83.2681C97.6341 85.3058 94.2847 88.3381 91.8286 92.0764C89.3725 95.8148 87.8914 100.135 87.5264 104.625C87.1614 109.115 87.9245 113.627 89.7431 117.729C91.5617 121.832 94.3754 125.39 97.9162 128.064" fill="white"/>
<path d="M138.994 106.733C138.98 102.227 137.84 97.7995 135.683 93.8723C133.527 89.9451 130.424 86.6486 126.672 84.2965C122.919 81.9445 118.641 80.6152 114.246 80.4351C109.85 80.2551 105.482 81.2304 101.558 83.2681C97.6341 85.3058 94.2847 88.3381 91.8286 92.0764C89.3725 95.8148 87.8914 100.135 87.5264 104.625C87.1614 109.115 87.9245 113.627 89.7431 117.729C91.5617 121.832 94.3754 125.39 97.9162 128.064" stroke="#111827" stroke-width="4" stroke-miterlimit="10" stroke-linecap="round"/>
<path d="M114.967 101.757H107.962C108.324 101.039 108.778 100.371 109.312 99.7673L109.312 99.7674L109.316 99.7627C110.002 98.9321 110.864 98.2629 111.841 97.8034C112.819 97.344 113.886 97.1057 114.967 97.1057C116.048 97.1057 117.115 97.344 118.093 97.8034C119.07 98.2629 119.932 98.9321 120.618 99.7627L120.618 99.7628L120.622 99.7675C120.876 100.053 121.232 100.226 121.614 100.249C121.803 100.261 121.992 100.235 122.171 100.174C122.35 100.113 122.515 100.017 122.657 99.8926C122.799 99.7679 122.915 99.6165 122.998 99.4471C123.081 99.2777 123.13 99.0936 123.142 98.9053C123.154 98.7171 123.128 98.5284 123.066 98.35C123.005 98.1724 122.909 98.0086 122.785 97.8678C121.827 96.7318 120.632 95.8182 119.281 95.1913C117.93 94.5641 116.458 94.2391 114.967 94.2391C113.476 94.2391 112.004 94.5641 110.653 95.1913C109.302 95.8182 108.107 96.7319 107.149 97.868C106.142 99.0105 105.358 100.329 104.836 101.757H102.266C101.884 101.757 101.518 101.908 101.247 102.177C100.977 102.446 100.825 102.811 100.825 103.191C100.825 103.572 100.977 103.937 101.247 104.206C101.518 104.475 101.884 104.626 102.266 104.626H104.137C103.981 105.813 103.981 107.015 104.137 108.202H102.266C101.884 108.202 101.518 108.353 101.247 108.622C100.977 108.89 100.825 109.255 100.825 109.636C100.825 110.017 100.977 110.382 101.247 110.651C101.518 110.919 101.884 111.07 102.266 111.07H104.836C105.358 112.496 106.142 113.813 107.149 114.953C108.105 116.091 109.301 117.007 110.651 117.635C112.002 118.263 113.476 118.589 114.967 118.589C116.458 118.589 117.932 118.263 119.283 117.635C120.632 117.007 121.827 116.093 122.783 114.956C122.914 114.817 123.017 114.653 123.084 114.474C123.152 114.293 123.182 114.101 123.174 113.908C123.165 113.715 123.117 113.526 123.033 113.352C122.95 113.178 122.831 113.023 122.686 112.896C122.54 112.768 122.371 112.671 122.187 112.611C122.003 112.55 121.809 112.527 121.616 112.543C121.423 112.559 121.235 112.613 121.064 112.703C120.892 112.792 120.741 112.915 120.618 113.065C119.932 113.895 119.07 114.564 118.093 115.024C117.115 115.483 116.048 115.722 114.967 115.722C113.886 115.722 112.819 115.483 111.841 115.024C110.864 114.564 110.002 113.895 109.316 113.065L109.316 113.065L109.312 113.06C108.778 112.457 108.324 111.788 107.962 111.07H114.967C115.349 111.07 115.715 110.919 115.986 110.651C116.256 110.382 116.408 110.017 116.408 109.636C116.408 109.255 116.256 108.89 115.986 108.622C115.715 108.353 115.349 108.202 114.967 108.202H107.029C106.827 107.018 106.827 105.809 107.029 104.626H114.967C115.349 104.626 115.715 104.475 115.986 104.206C116.256 103.937 116.408 103.572 116.408 103.191C116.408 102.811 116.256 102.446 115.986 102.177C115.715 101.908 115.349 101.757 114.967 101.757Z" fill="#38D4AD" stroke="#38D4AD" stroke-width="0.35"/>
<path d="M145.61 101.998L142.399 104.974L139.196 107.943L135.548 105.529L131.908 103.115" stroke="#111827" stroke-width="4" stroke-linecap="round" stroke-linejoin="round"/>
<rect x="41.9893" y="143.094" width="34.31" height="5.00355" transform="rotate(-5.32376 41.9893 143.094)" fill="white"/>
<path d="M44.7101 126.08C42.352 126.3 40.619 128.397 40.8392 130.764L41.0386 132.908L75.1961 129.73L74.9967 127.587C74.7765 125.219 72.6864 123.478 70.3283 123.697L44.7101 126.08Z" fill="#C9D5F6"/>
<path fill-rule="evenodd" clip-rule="evenodd" d="M75.5949 134.017L41.4374 137.194L42.4343 147.911C42.6545 150.278 44.7446 152.02 47.1027 151.8L72.7209 149.417C75.079 149.198 76.8121 147.101 76.5918 144.733L75.5949 134.017ZM46.5046 145.37C46.3945 144.187 47.261 143.138 48.44 143.028L50.5749 142.83C51.7539 142.72 52.799 143.591 52.9091 144.775C53.0192 145.958 52.1527 147.007 50.9737 147.116L48.8388 147.315C47.6598 147.425 46.6147 146.554 46.5046 145.37ZM56.9794 142.234C55.8004 142.344 54.9339 143.392 55.044 144.576C55.1541 145.76 56.1992 146.63 57.3782 146.521L59.513 146.322C60.6921 146.212 61.5586 145.164 61.4485 143.98C61.3384 142.796 60.2933 141.926 59.1143 142.035L56.9794 142.234Z" fill="#C9D5F6"/>
<rect x="40.9941" y="132.417" width="34.31" height="5.00355" transform="rotate(-5.32376 40.9941 132.417)" fill="white"/>
<rect x="33.3008" y="138.961" width="34.31" height="5.00355" transform="rotate(-14.9215 33.3008 138.961)" fill="white"/>
<path d="M33.1476 121.731C30.8591 122.341 29.4999 124.698 30.1118 126.995L30.6658 129.075L63.8154 120.247L63.2615 118.167C62.6496 115.869 60.2984 114.501 58.0099 115.11L33.1476 121.731Z" fill="#081635"/>
<path fill-rule="evenodd" clip-rule="evenodd" d="M64.9233 124.407L31.7737 133.235L34.5434 143.636C35.1553 145.933 37.5065 147.302 39.795 146.693L64.6573 140.071C66.9458 139.462 68.3049 137.105 67.6931 134.808L64.9233 124.407ZM38.1332 140.452C37.8272 139.303 38.5068 138.125 39.6511 137.82L41.7229 137.269C42.8672 136.964 44.0428 137.648 44.3487 138.797C44.6547 139.946 43.9751 141.124 42.8308 141.429L40.759 141.981C39.6147 142.285 38.4391 141.601 38.1332 140.452ZM47.9385 135.613C46.7942 135.918 46.1146 137.096 46.4206 138.245C46.7265 139.394 47.9021 140.078 49.0464 139.774L51.1182 139.222C52.2625 138.917 52.9421 137.739 52.6361 136.59C52.3302 135.441 51.1546 134.757 50.0103 135.062L47.9385 135.613Z" fill="#081635"/>
<rect x="30.54" y="128.601" width="34.31" height="5.00355" transform="rotate(-14.9215 30.54 128.601)" fill="white"/>
<defs>
<filter id="filter0_d_3354_19917" x="0.449809" y="6.174" width="127.874" height="94.242" filterUnits="userSpaceOnUse" color-interpolation-filters="sRGB">
<feFlood flood-opacity="0" result="BackgroundImageFix"/>
<feColorMatrix in="SourceAlpha" type="matrix" values="0 0 0 0 0 0 0 0 0 0 0 0 0 0 0 0 0 0 127 0" result="hardAlpha"/>
<feOffset dy="3.96442"/>
<feGaussianBlur stdDeviation="2.7751"/>
<feComposite in2="hardAlpha" operator="out"/>
<feColorMatrix type="matrix" values="0 0 0 0 0.0313726 0 0 0 0 0.0862745 0 0 0 0 0.207843 0 0 0 0.09 0"/>
<feBlend mode="normal" in2="BackgroundImageFix" result="effect1_dropShadow_3354_19917"/>
<feBlend mode="normal" in="SourceGraphic" in2="effect1_dropShadow_3354_19917" result="shape"/>
</filter>
</defs>
</svg>
