<svg width="130" height="102" viewBox="0 0 130 102" fill="none" xmlns="http://www.w3.org/2000/svg">
<path d="M96.9524 1.09392C96.4604 1.02006 95.9631 0.988776 95.4658 1.00041H6.61467C6.28222 1.00041 5.95244 1.00041 5.61999 1.03247C2.97371 1.29962 -0.00238234 3.19371 0.00293681 7.0273C0.0206673 27.0813 0.0206673 47.1371 0.00293681 67.1947C0.00293681 70.0826 1.67321 72.1823 4.4498 72.9544C5.22392 73.1448 6.02022 73.2284 6.8168 73.2029H33.5827C34.9311 73.2029 34.9976 73.2696 35.0003 74.6C35.0003 78.3989 35.0003 82.1969 35.0003 85.994C35.0003 87.2816 34.9232 87.3564 33.6519 87.3591C29.1767 87.3591 24.6998 87.3591 20.221 87.3591C19.7567 87.3354 19.2912 87.3532 18.8301 87.4125C17.5242 87.6476 16.5827 88.3422 16.1173 89.6272C15.6891 90.816 15.9844 91.8846 16.7423 92.8036C17.5987 93.8455 18.8088 93.9977 20.0827 93.9977C40.7139 93.9871 61.3443 93.9871 81.9737 93.9977C82.4045 94.0125 82.8357 93.9937 83.2636 93.9417C85.8168 93.5436 86.987 90.7706 85.4551 88.6922C84.6998 87.669 83.5934 87.3564 82.3833 87.3564C77.7059 87.3564 73.0286 87.3564 68.3513 87.3564C67.1944 87.3564 67.0881 87.2522 67.0854 86.1062C67.073 82.2414 67.073 78.3766 67.0854 74.5119C67.0854 73.3017 67.1865 73.2242 68.3993 73.2029C68.7317 73.2029 69.0615 73.2029 69.3939 73.2029C78.0819 73.2029 86.7698 73.2029 95.4578 73.2029C99.104 73.2029 101.155 71.5786 101.987 68.0923V6.31669C101.402 3.22043 99.8407 1.60417 96.9524 1.09392ZM60.8195 86.8755C60.8195 87.522 60.6626 87.6957 60.0216 87.693C54.0535 87.6663 48.0845 87.6663 42.1147 87.693C41.4684 87.693 41.2928 87.5354 41.2982 86.8916C41.3265 82.4943 41.3265 78.097 41.2982 73.6997C41.2982 73.0506 41.4551 72.8716 42.096 72.8796C45.112 72.917 48.1306 72.8956 51.1386 72.8956C54.0907 72.8956 57.0428 72.9143 59.9923 72.8796C60.6386 72.8796 60.8141 73.0372 60.8088 73.681C60.7858 78.0801 60.7893 82.4783 60.8195 86.8755ZM94.9844 66.9115C80.3248 66.8794 65.6652 66.8714 51.0056 66.8874C36.3779 66.8874 21.7503 66.8946 7.12262 66.9088C6.25826 66.9088 6.05879 66.7191 6.05879 65.8402C6.08893 46.6821 6.08893 27.5248 6.05879 8.3684C6.05879 7.49749 6.25028 7.2998 7.12262 7.2998C36.4099 7.32651 65.6971 7.32651 94.9844 7.2998C95.8514 7.2998 96.0482 7.48948 96.0482 8.3684C96.0216 27.5266 96.0216 46.6838 96.0482 65.8402C96.0562 66.7085 95.8594 66.9115 94.9844 66.9115Z" fill="#D5DCF0"/>
<circle cx="81" cy="48" r="27" fill="white"/>
<path d="M100.633 59.9616C93.5447 70.5206 81.1587 73.8086 71.0695 68.7044C66.116 66.223 62.2411 62.0007 60.1794 56.8379C58.1177 51.6752 58.0126 45.9309 59.884 40.694C63.8325 29.4871 75.9679 23.216 87.3291 26.5139C88.2105 26.7687 88.6814 27.4633 88.4924 28.2302C88.2843 29.0758 87.5249 29.4842 86.5568 29.2197C81.6142 27.8719 76.8325 28.3081 72.2483 30.5949C60.0112 36.6943 57.5922 53.5138 67.6056 62.8541C75.5323 70.2569 87.6457 70.0433 95.2457 62.368C102.13 55.4192 102.889 44.2888 97.0157 36.4531C96.8715 36.266 96.7273 36.0789 96.6105 35.8835C96.1777 35.1913 96.3132 34.3924 96.934 33.9428C97.2317 33.728 97.6015 33.6397 97.9634 33.6969C98.3253 33.7542 98.6502 33.9524 98.8677 34.2486C100.578 36.3672 101.87 38.7942 102.676 41.3996C104.806 48.3762 103.845 54.9344 100.633 59.9616Z" fill="#081635"/>
<path d="M79.3569 52.4791C79.447 52.339 79.5452 52.2045 79.6511 52.0764L90.7053 40.7263C90.9369 40.4315 91.2468 40.212 91.5975 40.0945C91.9482 39.9771 92.3245 39.9666 92.6808 40.0645C92.9704 40.1498 93.2348 40.3075 93.4504 40.5234C93.666 40.7394 93.8261 41.0068 93.9163 41.3019C94.0066 41.5969 94.0241 41.9103 93.9675 42.2141C93.9108 42.5178 93.7816 42.8024 93.5915 43.0423L93.2132 43.4451L80.828 56.1618C80.6524 56.42 80.4186 56.6308 80.1467 56.7764C79.8747 56.922 79.5725 56.998 79.2658 56.998C78.9591 56.998 78.6569 56.922 78.3849 56.7764C78.113 56.6308 77.8792 56.42 77.7036 56.1618L71.6651 49.9761C71.3874 49.7384 71.1836 49.4222 71.079 49.0668C70.9745 48.7114 70.9736 48.3324 71.0767 47.9765C71.1596 47.6915 71.3081 47.4312 71.5095 47.2174C71.711 47.0037 71.9596 46.8428 72.2342 46.7483C72.5089 46.6538 72.8017 46.6286 73.0879 46.6746C73.3741 46.7206 73.6454 46.8365 73.8788 47.0127L74.3411 47.4442L78.8805 52.1051C78.9779 52.2454 79.0624 52.3947 79.1327 52.5511L79.3569 52.4791Z" fill="#38D4AD"/>
<path d="M53.146 40.929C51.707 46.3216 51.8518 52.017 53.5627 57.3276C55.2737 62.6382 58.4777 67.3369 62.7879 70.8563C67.0982 74.3757 72.3304 76.5654 77.8527 77.161C83.3751 77.7566 88.9515 76.7326 93.9087 74.2127C94.0768 74.172 94.1968 74.2317 94.331 74.4708C95.0819 75.8263 95.8488 77.1724 96.6461 78.4994C96.8607 78.8596 96.7146 78.9706 96.4394 79.1288C95.8044 79.4789 95.1781 79.8471 94.5531 80.2175C93.5137 80.8316 93.3302 81.5121 93.9275 82.5627C94.9517 84.3567 95.9796 86.1485 97.0114 87.938C98.7658 90.9902 100.502 94.053 102.276 97.095C104.336 100.62 108.944 101.138 111.616 98.1529C111.998 97.7268 112.3 97.2266 112.639 96.7617L113.112 94.9919C113.105 93.7956 113.012 92.6231 112.401 91.5475C109.54 86.558 106.677 81.5719 103.811 76.5891C103.324 75.7437 102.588 75.5787 101.715 76.0638C101.033 76.4365 100.363 76.8163 99.7137 77.2329C99.3674 77.4539 99.2199 77.381 99.029 77.0486C98.2996 75.736 97.557 74.4296 96.7818 73.1437C96.6048 72.8463 96.6197 72.6961 96.7976 72.5313C100.683 69.9486 103.887 66.4567 106.134 62.3556C108.381 58.2545 109.604 53.6667 109.698 48.9864C109.792 44.3061 108.755 39.6732 106.674 35.4857C104.594 31.2983 101.533 27.6815 97.7543 24.946C93.9759 22.2105 89.5928 20.4382 84.9818 19.7812C80.3707 19.1242 75.6695 19.6022 71.282 21.1743C66.8945 22.7463 62.9519 25.3653 59.7929 28.8062C56.6339 32.2472 54.353 36.4072 53.146 40.929ZM102.25 79.4925C104.8 83.9531 107.372 88.3985 109.903 92.8715C110.285 93.5297 110.393 94.3126 110.205 95.0509C110.017 95.7891 109.547 96.4233 108.897 96.8162C107.554 97.6589 105.73 97.3727 104.936 96.0115C102.244 91.3954 99.6271 86.7353 96.9652 82.063C98.5212 81.1645 100.107 80.2624 101.678 79.3307C101.986 79.1424 102.091 79.2155 102.25 79.4925ZM106.003 55.1554C104.673 60.1392 101.904 64.6154 98.0437 68.018C94.1838 71.4205 89.4071 73.5966 84.3178 74.2709C79.2284 74.9453 74.0549 74.0877 69.4516 71.8066C64.8482 69.5255 61.0217 65.9234 58.4559 61.4557C55.8902 56.9879 54.7004 51.8554 55.0371 46.7069C55.3737 41.5585 57.2217 36.6255 60.3473 32.5316C63.4729 28.4378 67.7358 25.3671 72.5968 23.7078C77.4578 22.0485 82.6987 21.875 87.6567 23.2095C90.9487 24.0955 94.0346 25.6247 96.7382 27.7096C99.4417 29.7946 101.71 32.3945 103.414 35.3609C105.117 38.3274 106.223 41.6023 106.667 44.9986C107.111 48.3949 106.886 51.8462 106.003 55.1554Z" fill="#081635"/>
<rect x="12" y="23" width="31" height="5" rx="2.5" fill="#D5DCF0"/>
<rect x="12" y="43" width="36" height="5" rx="2.5" fill="#D5DCF0"/>
<rect x="12" y="53" width="30" height="5" rx="2.5" fill="#D5DCF0"/>
<rect x="12" y="33" width="40" height="5" rx="2.5" fill="#D5DCF0"/>
</svg>
