<svg width="110" height="145" viewBox="0 0 110 145" fill="none" xmlns="http://www.w3.org/2000/svg">
<g clip-path="url(#clip0_3354_19919)">
<path d="M42.4948 4.05034C42.5021 3.72252 42.4767 3.39479 42.4189 3.0722C42.0301 1.21204 40.5266 0.00586338 38.5879 0.00586338C31.7629 0.00586338 24.9372 0.00586338 18.111 0.00586338C15.191 0.00586338 12.2691 -0.00732923 9.34915 0.00586338C8.52583 0.00942985 7.72782 0.295972 7.08455 0.819025C6.44127 1.34208 5.99044 2.07097 5.80517 2.88751C5.63852 3.6998 5.67555 4.56485 5.68481 5.40541C5.68481 5.88977 6.12179 6.22335 6.59025 6.23089C6.82299 6.24046 7.05037 6.15817 7.22494 6.0012C7.39951 5.84424 7.50778 5.62472 7.52716 5.38845C7.54757 5.16986 7.55499 4.95021 7.54938 4.7307C7.54938 4.27273 7.54938 3.81476 7.54938 3.35679L7.71232 3.31532L18.2313 12.4936C14.7003 15.575 11.2063 18.6225 7.60678 21.7661C7.58456 21.3025 7.56604 20.9934 7.55864 20.6825C7.55123 20.3715 7.5679 20.0568 7.55864 19.7401C7.51235 19.1465 7.13647 18.7695 6.60136 18.7695C6.06624 18.7695 5.68852 19.1747 5.67555 19.7778C5.67555 20.1548 5.67555 20.5317 5.67555 20.9086C5.67555 23.37 7.27165 25.004 9.68429 25.004C19.2917 25.004 28.8997 25.004 38.5083 25.004C38.7851 25.0123 39.062 24.9959 39.336 24.955C41.2728 24.6063 42.5096 23.059 42.5115 20.9595C42.5078 15.3206 42.5022 9.68421 42.4948 4.05034ZM9.43617 2.29572C9.34359 2.21468 9.25101 2.12987 9.06585 1.94895H39.0619C38.9434 2.08087 38.8768 2.16191 38.8083 2.22788C34.1718 6.26607 29.536 10.3049 24.9008 14.3444C24.2935 14.8739 23.8787 14.8758 23.2733 14.3444C18.6603 10.3313 14.0479 6.31507 9.43617 2.29572ZM9.04734 23.0496L19.6885 13.7545C20.5236 14.4914 21.3328 15.2075 22.1438 15.9199C23.3825 17.0093 24.7786 17.0149 26.0155 15.9331C26.8302 15.2207 27.6375 14.497 28.4781 13.7526L39.1249 23.0496H9.04734ZM40.4858 21.6945L29.952 12.5012L40.4636 3.31532C40.671 3.78649 40.6858 21.148 40.4858 21.6945Z" fill="#081635"/>
<path d="M9.4379 15.8669C9.67839 15.867 9.9095 15.7719 10.0823 15.6016C10.2551 15.4314 10.356 15.1994 10.3637 14.9547C10.3722 14.8294 10.356 14.7036 10.3161 14.5848C10.2762 14.4659 10.2133 14.3564 10.1312 14.2626C10.0491 14.1689 9.94939 14.0927 9.83796 14.0388C9.72653 13.9848 9.60562 13.954 9.48234 13.9483C9.35934 13.9354 9.23561 13.9309 9.11202 13.9351C6.48397 13.9351 3.85715 13.9351 1.23157 13.9351C1.03251 13.9291 0.83363 13.9519 0.640904 14.003C0.508419 14.0456 0.387063 14.118 0.285828 14.2149C0.184592 14.3118 0.106068 14.4306 0.0560942 14.5625C0.0061199 14.6945 -0.014031 14.8362 -0.00286487 14.9772C0.0083013 15.1182 0.0505029 15.2548 0.120602 15.3769C0.33724 15.7538 0.676087 15.8801 1.09455 15.8801C2.46104 15.8801 3.82752 15.8801 5.19586 15.8801C6.02538 15.8801 6.86231 15.8801 7.68442 15.8801C8.26768 15.8744 8.8565 15.8914 9.4379 15.8669Z" fill="#081635"/>
<path d="M3.85333 11.061C4.75876 11.0855 5.66605 11.061 6.57334 11.061C7.51026 11.061 8.44718 11.078 9.3841 11.061C10.0062 11.046 10.3895 10.6276 10.3728 10.0603C10.3562 9.49299 9.95994 9.13679 9.35817 9.13491C7.50656 9.1236 5.67162 9.13491 3.82741 9.13491C3.62622 9.12381 3.42694 9.17982 3.25986 9.29444C3.09278 9.40907 2.967 9.57605 2.90161 9.77004C2.65164 10.4165 3.09972 11.0422 3.85333 11.061Z" fill="#081635"/>
<path d="M9.06348 1.94922H39.0596C38.9411 2.08114 38.8744 2.16219 38.8059 2.22815C34.1695 6.26635 29.5336 10.3052 24.8984 14.3446C24.2911 14.8742 23.8764 14.8761 23.2709 14.3446C18.6567 10.324 14.0437 6.30341 9.43195 2.2828C9.34307 2.21495 9.2579 2.13015 9.06348 1.94922Z" fill="white"/>
<path d="M39.1244 23.049H9.04688L19.6881 13.7538C20.5231 14.4907 21.3323 15.2069 22.1433 15.9193C23.382 17.0086 24.7781 17.0143 26.015 15.9325C26.8297 15.2201 27.637 14.4964 28.4777 13.752L39.1244 23.049Z" fill="white"/>
<path d="M29.9424 12.5003L40.4632 3.31445C40.6706 3.77996 40.6854 21.1414 40.4762 21.688C40.2669 22.2345 29.9424 12.5003 29.9424 12.5003Z" fill="white"/>
</g>
<path d="M51.5 81.5L5 81.5M5 81.5L20.5 97M5 81.5L20.5 66" stroke="#D5DCF0" stroke-width="4.75" stroke-linecap="round" stroke-linejoin="round"/>
<path d="M47.5 35.5L94 35.5M94 35.5L78.5 20M94 35.5L78.5 51" stroke="#D5DCF0" stroke-width="4.75" stroke-linecap="round" stroke-linejoin="round"/>
<path d="M73.2955 102.5C73.2955 108.989 67.8169 114.295 61 114.295C54.1831 114.295 48.7045 108.989 48.7045 102.5C48.7045 96.0113 54.1831 90.7045 61 90.7045C67.8169 90.7045 73.2955 96.0113 73.2955 102.5Z" fill="white" stroke="#38D4AD" stroke-width="1.40909"/>
<path d="M61.6184 100.584H57.9413C58.1212 100.282 58.3381 99.9991 58.5881 99.7402L58.5882 99.7403L58.5923 99.7358C58.9579 99.3299 59.4187 99.0018 59.9422 98.7762C60.4657 98.5506 61.0382 98.4333 61.6184 98.4333C62.1986 98.4333 62.7711 98.5506 63.2946 98.7762C63.8181 99.0018 64.2789 99.3299 64.6445 99.7358L64.6444 99.7358L64.6489 99.7404C64.8025 99.8989 65.0156 99.9924 65.24 100.005C65.3514 100.011 65.4632 99.9975 65.5693 99.9643C65.6754 99.931 65.7742 99.8788 65.8598 99.8098C65.9454 99.7409 66.0163 99.6563 66.0676 99.5606C66.119 99.4648 66.1495 99.3599 66.1568 99.252C66.1641 99.1442 66.148 99.0363 66.1097 98.9348C66.0718 98.8342 66.013 98.7423 65.9377 98.6641C65.4071 98.0872 64.7455 97.6243 64 97.307C63.2537 96.9893 62.4408 96.825 61.6184 96.825C60.7959 96.825 59.9831 96.9893 59.2368 97.307C58.4912 97.6243 57.8295 98.0872 57.299 98.6642C56.756 99.2289 56.3296 99.8794 56.0408 100.584H54.6905C54.4659 100.584 54.2476 100.665 54.0843 100.814C53.9205 100.964 53.825 101.17 53.825 101.389C53.825 101.608 53.9205 101.814 54.0843 101.963C54.2476 102.112 54.4659 102.193 54.6905 102.193H55.6188C55.5505 102.729 55.5505 103.27 55.6188 103.806H54.6905C54.4659 103.806 54.2476 103.888 54.0843 104.036C53.9205 104.186 53.825 104.392 53.825 104.611C53.825 104.83 53.9205 105.036 54.0843 105.186C54.2476 105.334 54.4659 105.416 54.6905 105.416H56.0408C56.3296 106.119 56.7561 106.769 57.2989 107.332C57.8288 107.91 58.4902 108.374 59.2359 108.692C59.9823 109.01 60.7956 109.175 61.6184 109.175C62.4412 109.175 63.2545 109.01 64.0008 108.692C64.7455 108.375 65.4062 107.912 65.9357 107.335C66.0146 107.258 66.077 107.167 66.1183 107.066C66.1604 106.963 66.1795 106.853 66.1741 106.742C66.1687 106.632 66.1389 106.524 66.0871 106.426C66.0354 106.327 65.9631 106.241 65.8754 106.17C65.7877 106.1 65.6862 106.047 65.5772 106.014C65.4683 105.981 65.3535 105.969 65.2397 105.977C65.1258 105.986 65.0145 106.015 64.9124 106.064C64.8102 106.113 64.7187 106.181 64.6441 106.264L64.7745 106.381L64.6445 106.264C64.2789 106.67 63.8181 106.998 63.2946 107.223C62.7711 107.449 62.1986 107.566 61.6184 107.566C61.0382 107.566 60.4657 107.449 59.9422 107.223C59.4187 106.998 58.9579 106.67 58.5923 106.264L58.5923 106.264L58.5881 106.259C58.3381 106.001 58.1212 105.717 57.9413 105.416H61.6184C61.843 105.416 62.0613 105.334 62.2246 105.186C62.3884 105.036 62.4839 104.83 62.4839 104.611C62.4839 104.392 62.3884 104.186 62.2246 104.036C62.0613 103.888 61.843 103.806 61.6184 103.806H57.3538C57.2628 103.272 57.2628 102.728 57.3538 102.193H61.6184C61.843 102.193 62.0613 102.112 62.2246 101.963C62.3884 101.814 62.4839 101.608 62.4839 101.389C62.4839 101.17 62.3884 100.964 62.2246 100.814C62.0613 100.665 61.843 100.584 61.6184 100.584Z" fill="#38D4AD" stroke="#38D4AD" stroke-width="0.35"/>
<path d="M96.2955 132.5C96.2955 138.989 90.8169 144.295 84 144.295C77.1831 144.295 71.7045 138.989 71.7045 132.5C71.7045 126.011 77.1831 120.705 84 120.705C90.8169 120.705 96.2955 126.011 96.2955 132.5Z" fill="white" stroke="#38D4AD" stroke-width="1.40909"/>
<path d="M84.6184 130.584H80.9413C81.1212 130.282 81.3381 129.999 81.5881 129.74L81.5882 129.74L81.5923 129.736C81.9579 129.33 82.4187 129.002 82.9422 128.776C83.4657 128.551 84.0382 128.433 84.6184 128.433C85.1986 128.433 85.7711 128.551 86.2946 128.776C86.8181 129.002 87.2789 129.33 87.6445 129.736L87.6444 129.736L87.6489 129.74C87.8025 129.899 88.0156 129.992 88.24 130.005C88.3514 130.011 88.4632 129.998 88.5693 129.964C88.6754 129.931 88.7742 129.879 88.8598 129.81C88.9454 129.741 89.0163 129.656 89.0676 129.561C89.119 129.465 89.1495 129.36 89.1568 129.252C89.1641 129.144 89.148 129.036 89.1097 128.935C89.0718 128.834 89.013 128.742 88.9377 128.664C88.4071 128.087 87.7455 127.624 87 127.307C86.2537 126.989 85.4408 126.825 84.6184 126.825C83.7959 126.825 82.9831 126.989 82.2368 127.307C81.4912 127.624 80.8295 128.087 80.299 128.664C79.756 129.229 79.3296 129.879 79.0408 130.584H77.6905C77.4659 130.584 77.2476 130.665 77.0843 130.814C76.9205 130.964 76.825 131.17 76.825 131.389C76.825 131.608 76.9205 131.814 77.0843 131.963C77.2476 132.112 77.4659 132.193 77.6905 132.193H78.6188C78.5505 132.729 78.5505 133.27 78.6188 133.806H77.6905C77.4659 133.806 77.2476 133.888 77.0843 134.036C76.9205 134.186 76.825 134.392 76.825 134.611C76.825 134.83 76.9205 135.036 77.0843 135.186C77.2476 135.334 77.4659 135.416 77.6905 135.416H79.0408C79.3296 136.119 79.7561 136.769 80.2989 137.332C80.8288 137.91 81.4902 138.374 82.2359 138.692C82.9823 139.01 83.7956 139.175 84.6184 139.175C85.4412 139.175 86.2545 139.01 87.0008 138.692C87.7455 138.375 88.4062 137.912 88.9357 137.335C89.0146 137.258 89.077 137.167 89.1183 137.066C89.1604 136.963 89.1795 136.853 89.1741 136.742C89.1687 136.632 89.1389 136.524 89.0871 136.426C89.0354 136.327 88.9631 136.241 88.8754 136.17C88.7877 136.1 88.6862 136.047 88.5772 136.014C88.4683 135.981 88.3535 135.969 88.2397 135.977C88.1258 135.986 88.0145 136.015 87.9124 136.064C87.8102 136.113 87.7187 136.181 87.6441 136.264L87.7745 136.381L87.6445 136.264C87.2789 136.67 86.8181 136.998 86.2946 137.223C85.7711 137.449 85.1986 137.566 84.6184 137.566C84.0382 137.566 83.4657 137.449 82.9422 137.223C82.4187 136.998 81.9579 136.67 81.5923 136.264L81.5923 136.264L81.5881 136.259C81.3381 136.001 81.1212 135.717 80.9413 135.416H84.6184C84.843 135.416 85.0613 135.334 85.2246 135.186C85.3884 135.036 85.4839 134.83 85.4839 134.611C85.4839 134.392 85.3884 134.186 85.2246 134.036C85.0613 133.888 84.843 133.806 84.6184 133.806H80.3538C80.2628 133.272 80.2628 132.728 80.3538 132.193H84.6184C84.843 132.193 85.0613 132.112 85.2246 131.963C85.3884 131.814 85.4839 131.608 85.4839 131.389C85.4839 131.17 85.3884 130.964 85.2246 130.814C85.0613 130.665 84.843 130.584 84.6184 130.584Z" fill="#38D4AD" stroke="#38D4AD" stroke-width="0.35"/>
<path d="M96.9615 121.809C94.8422 123.151 92.337 123.818 89.7866 123.719C87.2361 123.621 84.764 122.762 82.7065 121.259C80.649 119.756 79.1058 117.683 78.2867 115.32C77.4676 112.958 77.4123 110.421 78.1284 108.054C78.8444 105.688 80.297 103.607 82.2888 102.094C84.2805 100.581 86.7149 99.7093 89.2608 99.5981C91.8066 99.4868 94.3406 100.141 96.5182 101.472C98.6958 102.802 100.411 104.745 101.432 107.036" fill="white"/>
<path d="M96.9615 121.809C94.8422 123.151 92.337 123.818 89.7866 123.719C87.2361 123.621 84.764 122.762 82.7065 121.259C80.649 119.756 79.1058 117.683 78.2867 115.32C77.4676 112.958 77.4123 110.421 78.1284 108.054C78.8444 105.688 80.297 103.607 82.2888 102.094C84.2805 100.581 86.7149 99.7093 89.2608 99.5981C91.8066 99.4868 94.3406 100.141 96.5182 101.472C98.6958 102.802 100.411 104.745 101.432 107.036" stroke="#38D4AD" stroke-width="1.45" stroke-linecap="round" stroke-linejoin="round"/>
<path d="M90.2727 108.796H86.5956C86.7755 108.494 86.9924 108.211 87.2424 107.952L87.2425 107.952L87.2466 107.948C87.6122 107.542 88.073 107.214 88.5965 106.988C89.12 106.762 89.6925 106.645 90.2727 106.645C90.8529 106.645 91.4254 106.762 91.9489 106.988C92.4724 107.214 92.9332 107.542 93.2988 107.948L93.2987 107.948L93.3032 107.952C93.4568 108.111 93.6699 108.204 93.8943 108.217C94.0057 108.223 94.1175 108.209 94.2236 108.176C94.3297 108.143 94.4285 108.091 94.5141 108.022C94.5997 107.953 94.6706 107.868 94.7219 107.772C94.7733 107.677 94.8038 107.572 94.8111 107.464C94.8184 107.356 94.8023 107.248 94.764 107.147C94.7261 107.046 94.6673 106.954 94.592 106.876C94.0614 106.299 93.3998 105.836 92.6542 105.519C91.908 105.201 91.0951 105.037 90.2727 105.037C89.4502 105.037 88.6374 105.201 87.8911 105.519C87.1455 105.836 86.4838 106.299 85.9533 106.876C85.4103 107.441 84.9839 108.091 84.6951 108.796H83.3448C83.1202 108.796 82.9019 108.877 82.7386 109.026C82.5748 109.175 82.4793 109.382 82.4793 109.601C82.4793 109.819 82.5748 110.026 82.7386 110.175C82.9019 110.324 83.1202 110.405 83.3448 110.405H84.2731C84.2048 110.941 84.2048 111.482 84.2731 112.018H83.3448C83.1202 112.018 82.9019 112.099 82.7386 112.248C82.5748 112.398 82.4793 112.604 82.4793 112.823C82.4793 113.042 82.5748 113.248 82.7386 113.397C82.9019 113.546 83.1202 113.628 83.3448 113.628H84.6951C84.9839 114.331 85.4104 114.981 85.9532 115.544C86.4831 116.122 87.1445 116.586 87.8902 116.904C88.6366 117.222 89.4498 117.387 90.2727 117.387C91.0955 117.387 91.9087 117.222 92.6551 116.904C93.3998 116.586 94.0605 116.123 94.59 115.547C94.6689 115.47 94.7313 115.378 94.7726 115.278C94.8147 115.175 94.8338 115.065 94.8284 114.954C94.823 114.844 94.7932 114.736 94.7414 114.638C94.6897 114.539 94.6174 114.452 94.5297 114.382C94.442 114.312 94.3405 114.259 94.2315 114.226C94.1226 114.193 94.0078 114.18 93.894 114.189C93.7801 114.198 93.6688 114.227 93.5666 114.276C93.4645 114.325 93.373 114.393 93.2984 114.476L93.4288 114.593L93.2988 114.476C92.9332 114.882 92.4724 115.21 91.9489 115.435C91.4254 115.661 90.8529 115.778 90.2727 115.778C89.6925 115.778 89.12 115.661 88.5965 115.435C88.073 115.21 87.6122 114.882 87.2466 114.476L87.2466 114.476L87.2424 114.471C86.9924 114.213 86.7755 113.929 86.5956 113.628H90.2727C90.4973 113.628 90.7156 113.546 90.8789 113.397C91.0427 113.248 91.1382 113.042 91.1382 112.823C91.1382 112.604 91.0427 112.398 90.8789 112.248C90.7156 112.099 90.4973 112.018 90.2727 112.018H86.0081C85.9171 111.484 85.9171 110.94 86.0081 110.405H90.2727C90.4973 110.405 90.7156 110.324 90.8789 110.175C91.0427 110.026 91.1382 109.819 91.1382 109.601C91.1382 109.382 91.0427 109.175 90.8789 109.026C90.7156 108.877 90.4973 108.796 90.2727 108.796Z" fill="#38D4AD" stroke="#38D4AD" stroke-width="0.35"/>
<path d="M99.5894 117.227C99.3489 117.227 99.1178 117.322 98.945 117.492C98.7723 117.662 98.6713 117.894 98.6636 118.139C98.6551 118.264 98.6713 118.39 98.7112 118.509C98.7512 118.628 98.814 118.737 98.8961 118.831C98.9783 118.925 99.078 119.001 99.1894 119.055C99.3008 119.109 99.4217 119.14 99.545 119.145C99.668 119.158 99.7917 119.163 99.9153 119.159C102.543 119.159 105.17 119.159 107.796 119.159C107.995 119.165 108.194 119.142 108.386 119.091C108.519 119.048 108.64 118.976 108.742 118.879C108.843 118.782 108.921 118.663 108.971 118.531C109.021 118.399 109.041 118.258 109.03 118.117C109.019 117.976 108.977 117.839 108.907 117.717C108.69 117.34 108.351 117.214 107.933 117.214C106.566 117.214 105.2 117.214 103.831 117.214C103.002 117.214 102.165 117.214 101.343 117.214C100.76 117.219 100.171 117.202 99.5894 117.227Z" fill="#38D4AD"/>
<path d="M105.174 112.223C104.269 112.199 103.361 112.223 102.454 112.223C101.517 112.223 100.58 112.206 99.6432 112.223C99.0211 112.238 98.6378 112.657 98.6545 113.224C98.6712 113.791 99.0674 114.147 99.6692 114.149C101.521 114.161 103.356 114.149 105.2 114.149C105.401 114.16 105.6 114.104 105.767 113.99C105.935 113.875 106.06 113.708 106.126 113.514C106.376 112.868 105.928 112.242 105.174 112.223Z" fill="#38D4AD"/>
<defs>
<clipPath id="clip0_3354_19919">
<rect width="42.5" height="25" fill="white"/>
</clipPath>
</defs>
</svg>
