<svg width="100" height="41" viewBox="0 0 100 41" fill="none" xmlns="http://www.w3.org/2000/svg">
<path d="M85.1445 34.4721L98.6658 11.9004H78.8343L76.228 16.3192C76.2206 16.3863 76.1988 16.4509 76.164 16.5087C76.1293 16.5665 76.0826 16.6162 76.0269 16.6543C76.0018 16.692 76.0269 16.7381 75.9934 16.78L75.3439 17.9276H87.4071L74.6945 39.5234L74.0869 40.4993H95.6867L98.5359 34.5014C97.8907 34.4512 97.1532 34.4679 96.906 34.4679L85.1445 34.4721Z" fill="#38D4AD"/>
<path d="M48.7647 32.4279C46.9965 34.4175 45.1361 35.2635 42.7059 35.2635C38.5158 35.2635 35.5828 32.2101 35.1973 27.5902H55.7789V26.8615C55.7118 21.651 54.6601 18.5431 52.0078 15.7704C49.6069 13.3578 46.3931 12.0845 42.7184 12.0845C40.907 12.0494 39.1077 12.388 37.433 13.0791C35.7583 13.7702 34.2441 14.799 32.9849 16.1013C30.5505 18.6814 29.2139 22.3337 29.2139 26.384C29.2139 30.4342 30.496 33.9819 32.9263 36.5494C35.3565 39.1169 38.7085 40.4949 42.5969 40.4949C47.8345 40.4949 52.1251 37.8939 54.6811 33.1735L55.0163 32.5536L54.8151 32.4363L48.7647 32.4279ZM42.643 17.1149C46.3009 17.1149 48.8946 19.1756 49.7242 22.6772H35.6163C36.7225 19.0793 39.1862 17.1149 42.643 17.1149Z" fill="#38D4AD"/>
<path d="M60.0225 0.5V30.4015C60.0225 33.945 60.8814 36.5 62.5994 38.0665C64.3173 39.633 66.5953 40.4162 69.4333 40.4162C70.0493 40.4162 70.7239 40.3827 71.4362 40.3282L75.0103 34.167H69.7267C68.8454 34.167 68.0003 33.8171 67.3771 33.1942C66.754 32.5713 66.4039 31.7264 66.4039 30.8455V0.5H60.0225Z" fill="#38D4AD"/>
<path d="M19.5215 11.2188C19.5649 11.4959 19.5873 11.7759 19.5885 12.0564V33.7528C16.8697 33.9893 14.135 33.9795 11.4179 33.7234H11.3257H11.2419C9.95252 33.5585 8.7674 32.9296 7.90828 31.9543C7.04916 30.9791 6.57489 29.7245 6.5742 28.425V12.09C6.57542 11.8094 6.59783 11.5294 6.64125 11.2523H0V26.6324C0 29.7039 0.405037 32.157 1.21512 33.9915C1.89481 35.6625 3.02468 37.1124 4.47917 38.18C5.90372 39.1633 7.53503 39.8067 9.24746 40.0606C11.121 40.3568 13.0156 40.4997 14.9124 40.4878C17.0351 40.4952 19.1537 40.3003 21.2394 39.9056C22.8899 39.6118 24.5203 39.2145 26.1208 38.7161V11.2188H19.5215Z" fill="#38D4AD"/>
</svg>
